<?xml version="1.0" encoding="UTF-8" standalone="no"?>
<!-- Generator: Gravit.io -->
<svg xmlns="http://www.w3.org/2000/svg" xmlns:xlink="http://www.w3.org/1999/xlink" style="isolation:isolate" viewBox="-9153.781 -2034.34 9348.03 11574.285" width="9348.03pt" height="11574.285pt">
<defs>
<clipPath id="_clipPath_SqnT6ReVMqQGurW9su1M9UXfl2PxGnsH">
<rect x="-9153.781" y="-2034.34" width="9348.03" height="11574.285"/>
</clipPath>
</defs><g clip-path="url(#_clipPath_SqnT6ReVMqQGurW9su1M9UXfl2PxGnsH)">
<defs>
<filter id="l1RLrLaMqI10XOCTDhByX5VkPUr9nPkC" x="-200%" y="-200%" width="400%" height="400%" filterUnits="objectBoundingBox" color-interpolation-filters="sRGB">
<feGaussianBlur xmlns="http://www.w3.org/2000/svg" in="SourceGraphic" stdDeviation="2.146804531419514"/>
<feOffset xmlns="http://www.w3.org/2000/svg" dx="0" dy="0" result="pf_100_offsetBlur"/><feFlood xmlns="http://www.w3.org/2000/svg" flood-color="#000000" flood-opacity="0.65"/>
<feComposite xmlns="http://www.w3.org/2000/svg" in2="pf_100_offsetBlur" operator="in" result="pf_100_dropShadow"/><feBlend xmlns="http://www.w3.org/2000/svg" in="SourceGraphic" in2="pf_100_dropShadow" mode="normal"/></filter></defs>
<g filter="url(#l1RLrLaMqI10XOCTDhByX5VkPUr9nPkC)">
<mask id="_mask_WtTuvuhvWki54wY62AlKI8L6IFzvbwTO" x="-200%" y="-200%" width="400%" height="400%"><rect x="-200%" y="-200%" width="400%" height="400%" style="fill:white;"/><path d=" M -3307.164 1018.848 C -3177.241 1213.25 -3292.882 1588.508 -3396.086 1589.296 C -3281.83 1639.143 -3210.355 1705.171 -3183.709 1914.01 C -3157.064 2122.848 -3175.247 2341.141 -3240.307 2428.806 C -3149.396 2469.621 -2921.543 2701.073 -3106.159 2836.93 C -3119.323 2937.601 -2883.231 3102.974 -3066.234 3268.466 C -2872.112 3482.251 -3131.976 3352.981 -3497.827 3407.078 C -3393.423 3518.847 -3384.471 3680.321 -3471.091 3891.376 C -3494.902 3989.392 -3683.336 4079.047 -3743.658 4151.991 C -3529.343 4329.727 -3635.81 4844.568 -3992.507 4769.766 C -4213.035 4897.544 -4489.061 4996.845 -4583.033 4869.024 L -4699.532 4769.766 C -4767.141 4833.04 -4846.864 4875.526 -4931.229 4892.784 C -5015.692 4910.129 -5102.229 4901.96 -5182.822 4869.024 L -5580.914 4706.431 L -6003.153 4728.504 C -6036.354 4730.239 -6069.445 4728.112 -6101.965 4722.2 C -6566.236 5317.804 -7141.089 5144.284 -7182.757 3797.74 C -7631.278 3816.205 -7647.21 3117.223 -7479.63 2999.183 C -7635.4 2886.931 -7536.339 2618.664 -7479.63 2561.806 C -7551.484 2611.358 -7611.621 2249.319 -7535.045 2045.362 C -7533.698 1953.666 -7392.355 1736.859 -7345.582 1702.263 C -7485.204 1298.491 -7343.759 1101.892 -7240.435 833.03 C -7281.613 804.692 -7299.013 452.84 -7086.582 415.384 C -7083.091 265.589 -6983.56 200.175 -6978.198 165.82 C -7007.66 -78.062 -6193.891 -407.212 -6101.679 -224.447 C -6036.563 -476.841 -5883.857 -572.979 -5643.678 -512.986 L -5425.105 -610.169 C -5399.013 -644.183 -5261.656 -640.419 -5213.315 -661.469 C -5165.093 -682.523 -5037.363 -629.753 -4978.767 -632.671 L -4840.839 -527.384 L -4583.033 -610.169 C -4530.75 -626.951 -4523.142 -634.678 -4464.197 -632.671 C -4467.497 -743.863 -4150.412 -766.129 -4036.918 -632.671 L -3992.507 -527.384 C -3882.192 -642.928 -3786.135 -602.678 -3704.366 -464.432 C -3645.965 -457.53 -3590.671 -441.18 -3543.508 -416.878 C -3496.466 -392.581 -3366.452 -361.082 -3342.173 -325.353 C -3304.303 -252.972 -3295.144 -194.12 -3314.725 -148.827 L -3106.159 -10.893 C -3063.979 17.061 -3032.688 51.273 -3015.421 88.557 C -2998.156 125.879 -2995.362 165.127 -3007.304 202.702 L -3066.234 388.112 L -3017.038 577.204 C -3007.068 615.487 -3011.895 654.475 -3031.069 690.556 C -3050.242 726.638 -3083.195 758.663 -3126.811 783.656 C -3134.915 910.848 -3195.016 1039.882 -3307.164 1018.848 Z " fill-rule="evenodd" fill="black" stroke="none"/></mask><path d=" M -3307.164 1018.848 C -3177.241 1213.25 -3292.882 1588.508 -3396.086 1589.296 C -3281.83 1639.143 -3210.355 1705.171 -3183.709 1914.01 C -3157.064 2122.848 -3175.247 2341.141 -3240.307 2428.806 C -3149.396 2469.621 -2921.543 2701.073 -3106.159 2836.93 C -3119.323 2937.601 -2883.231 3102.974 -3066.234 3268.466 C -2872.112 3482.251 -3131.976 3352.981 -3497.827 3407.078 C -3393.423 3518.847 -3384.471 3680.321 -3471.091 3891.376 C -3494.902 3989.392 -3683.336 4079.047 -3743.658 4151.991 C -3529.343 4329.727 -3635.81 4844.568 -3992.507 4769.766 C -4213.035 4897.544 -4489.061 4996.845 -4583.033 4869.024 L -4699.532 4769.766 C -4767.141 4833.04 -4846.864 4875.526 -4931.229 4892.784 C -5015.692 4910.129 -5102.229 4901.96 -5182.822 4869.024 L -5580.914 4706.431 L -6003.153 4728.504 C -6036.354 4730.239 -6069.445 4728.112 -6101.965 4722.2 C -6566.236 5317.804 -7141.089 5144.284 -7182.757 3797.74 C -7631.278 3816.205 -7647.21 3117.223 -7479.63 2999.183 C -7635.4 2886.931 -7536.339 2618.664 -7479.63 2561.806 C -7551.484 2611.358 -7611.621 2249.319 -7535.045 2045.362 C -7533.698 1953.666 -7392.355 1736.859 -7345.582 1702.263 C -7485.204 1298.491 -7343.759 1101.892 -7240.435 833.03 C -7281.613 804.692 -7299.013 452.84 -7086.582 415.384 C -7083.091 265.589 -6983.56 200.175 -6978.198 165.82 C -7007.66 -78.062 -6193.891 -407.212 -6101.679 -224.447 C -6036.563 -476.841 -5883.857 -572.979 -5643.678 -512.986 L -5425.105 -610.169 C -5399.013 -644.183 -5261.656 -640.419 -5213.315 -661.469 C -5165.093 -682.523 -5037.363 -629.753 -4978.767 -632.671 L -4840.839 -527.384 L -4583.033 -610.169 C -4530.75 -626.951 -4523.142 -634.678 -4464.197 -632.671 C -4467.497 -743.863 -4150.412 -766.129 -4036.918 -632.671 L -3992.507 -527.384 C -3882.192 -642.928 -3786.135 -602.678 -3704.366 -464.432 C -3645.965 -457.53 -3590.671 -441.18 -3543.508 -416.878 C -3496.466 -392.581 -3366.452 -361.082 -3342.173 -325.353 C -3304.303 -252.972 -3295.144 -194.12 -3314.725 -148.827 L -3106.159 -10.893 C -3063.979 17.061 -3032.688 51.273 -3015.421 88.557 C -2998.156 125.879 -2995.362 165.127 -3007.304 202.702 L -3066.234 388.112 L -3017.038 577.204 C -3007.068 615.487 -3011.895 654.475 -3031.069 690.556 C -3050.242 726.638 -3083.195 758.663 -3126.811 783.656 C -3134.915 910.848 -3195.016 1039.882 -3307.164 1018.848 Z " fill-rule="evenodd" fill="rgb(58,15,87)"/><path d=" M -3307.164 1018.848 C -3177.241 1213.25 -3292.882 1588.508 -3396.086 1589.296 C -3281.83 1639.143 -3210.355 1705.171 -3183.709 1914.01 C -3157.064 2122.848 -3175.247 2341.141 -3240.307 2428.806 C -3149.396 2469.621 -2921.543 2701.073 -3106.159 2836.93 C -3119.323 2937.601 -2883.231 3102.974 -3066.234 3268.466 C -2872.112 3482.251 -3131.976 3352.981 -3497.827 3407.078 C -3393.423 3518.847 -3384.471 3680.321 -3471.091 3891.376 C -3494.902 3989.392 -3683.336 4079.047 -3743.658 4151.991 C -3529.343 4329.727 -3635.81 4844.568 -3992.507 4769.766 C -4213.035 4897.544 -4489.061 4996.845 -4583.033 4869.024 L -4699.532 4769.766 C -4767.141 4833.04 -4846.864 4875.526 -4931.229 4892.784 C -5015.692 4910.129 -5102.229 4901.96 -5182.822 4869.024 L -5580.914 4706.431 L -6003.153 4728.504 C -6036.354 4730.239 -6069.445 4728.112 -6101.965 4722.2 C -6566.236 5317.804 -7141.089 5144.284 -7182.757 3797.74 C -7631.278 3816.205 -7647.21 3117.223 -7479.63 2999.183 C -7635.4 2886.931 -7536.339 2618.664 -7479.63 2561.806 C -7551.484 2611.358 -7611.621 2249.319 -7535.045 2045.362 C -7533.698 1953.666 -7392.355 1736.859 -7345.582 1702.263 C -7485.204 1298.491 -7343.759 1101.892 -7240.435 833.03 C -7281.613 804.692 -7299.013 452.84 -7086.582 415.384 C -7083.091 265.589 -6983.56 200.175 -6978.198 165.82 C -7007.66 -78.062 -6193.891 -407.212 -6101.679 -224.447 C -6036.563 -476.841 -5883.857 -572.979 -5643.678 -512.986 L -5425.105 -610.169 C -5399.013 -644.183 -5261.656 -640.419 -5213.315 -661.469 C -5165.093 -682.523 -5037.363 -629.753 -4978.767 -632.671 L -4840.839 -527.384 L -4583.033 -610.169 C -4530.75 -626.951 -4523.142 -634.678 -4464.197 -632.671 C -4467.497 -743.863 -4150.412 -766.129 -4036.918 -632.671 L -3992.507 -527.384 C -3882.192 -642.928 -3786.135 -602.678 -3704.366 -464.432 C -3645.965 -457.53 -3590.671 -441.18 -3543.508 -416.878 C -3496.466 -392.581 -3366.452 -361.082 -3342.173 -325.353 C -3304.303 -252.972 -3295.144 -194.12 -3314.725 -148.827 L -3106.159 -10.893 C -3063.979 17.061 -3032.688 51.273 -3015.421 88.557 C -2998.156 125.879 -2995.362 165.127 -3007.304 202.702 L -3066.234 388.112 L -3017.038 577.204 C -3007.068 615.487 -3011.895 654.475 -3031.069 690.556 C -3050.242 726.638 -3083.195 758.663 -3126.811 783.656 C -3134.915 910.848 -3195.016 1039.882 -3307.164 1018.848 Z " fill-rule="evenodd" fill="rgb(58,15,87)" mask="url(#_mask_WtTuvuhvWki54wY62AlKI8L6IFzvbwTO)" vector-effect="non-scaling-stroke" stroke-width="10.471" stroke="rgb(0,0,0)" stroke-linejoin="round" stroke-linecap="butt" stroke-miterlimit="1.414"/></g><path d=" M -3688.127 506.22 C -3481.813 710.331 -3756.002 1047.923 -4030.176 1331.433 C -3997.093 1314.185 -3833.605 1226.398 -3746.635 1121.45 C -3399.772 684.907 -3332.059 373.524 -3774.618 342.526 C -3892.819 377.572 -3977.059 401.281 -4113.685 568.103 C -4350.239 869.87 -4324.005 1120.931 -4146.974 1203.901 C -4086.766 1199.04 -3964.345 1187.297 -3845.787 980.262 C -3706.784 735.945 -3723.455 625.505 -3853.214 601.134 C -3926.657 605.262 -4030.822 660.688 -4064.099 779.254 C -4171.729 1128.957 -4032.969 1034.667 -3934.463 833.642 C -4011.393 921.36 -4095.972 982.234 -3974.653 766.154 C -3881.924 697.31 -3814.779 678.936 -3897.302 908.209 C -3951.112 1023.955 -4065.15 1111.426 -4136.514 1098.153 C -4231.842 976.94 -4181.423 782.644 -4037.515 632.419 C -3894.999 462.408 -3786.671 489.877 -3688.127 506.22 Z " fill="rgb(47,12,70)"/>
<defs><filter id="s61RhNcKOpxZsXXIWSyR7ABbaqbcJ7KC" x="-200%" y="-200%" width="400%" height="400%" filterUnits="objectBoundingBox" color-interpolation-filters="sRGB"><feGaussianBlur xmlns="http://www.w3.org/2000/svg" in="SourceGraphic" stdDeviation="82.00793310022544"/><feOffset xmlns="http://www.w3.org/2000/svg" dx="94" dy="0" result="pf_100_offsetBlur"/><feFlood xmlns="http://www.w3.org/2000/svg" flood-color="#000000" flood-opacity="0.65"/><feComposite xmlns="http://www.w3.org/2000/svg" in2="pf_100_offsetBlur" operator="in" result="pf_100_dropShadow"/><feBlend xmlns="http://www.w3.org/2000/svg" in="SourceGraphic" in2="pf_100_dropShadow" mode="normal"/></filter></defs><g filter="url(#s61RhNcKOpxZsXXIWSyR7ABbaqbcJ7KC)"><path d=" M -3152.478 529.025 C -3262.389 378.885 -3465.543 501.337 -3637.677 630.628 C -3626.635 612.879 -3570.607 525.496 -3507.392 486.385 C -3244.959 332.676 -3064.005 331.302 -3061.589 601.858 C -3085.793 668.634 -3102.317 716.385 -3202.745 777.579 C -3384.044 881.893 -3527.137 834.303 -3568.581 717.142 C -3563.703 681.483 -3552.718 609.214 -3429.851 563.997 C -3284.891 511.181 -3222.123 535.208 -3212.649 616.47 C -3217.566 660.195 -3252.973 715.935 -3322.136 720.973 C -3526.454 741.544 -3467.555 669.882 -3348.831 635.984 C -3401.815 671.227 -3439.667 714.478 -3311.517 668.742 C -3268.81 621.591 -3255.94 583.464 -3390.311 604.156 C -3458.569 621.921 -3512.699 679.552 -3507.563 724.227 C -3441.347 797.006 -3328.153 791.229 -3236.991 723.546 C -3134.529 659.207 -3146.525 590.464 -3152.478 529.025 Z " fill="rgb(68,18,102)"/></g><path d=" M -5586.073 971.913 C -5428.463 865.926 -5613.982 495.228 -5801.617 169.973 C -5778.309 194.969 -5663.228 320.636 -5604.3 436.424 C -5369.981 913.335 -5333.132 1196.456 -5655.218 1081.986 C -5739.538 1015.011 -5799.683 968.344 -5892.18 784.802 C -6051.821 456.154 -6022.929 253.543 -5891.314 240.041 C -5847.852 263.242 -5759.556 311.977 -5681.739 523.569 C -5590.566 772.976 -5606.996 860.474 -5702.033 839.751 C -5755.118 812.964 -5828.462 733.323 -5847.926 623.139 C -5912.209 295.149 -5815.312 418.427 -5751.797 618.603 C -5804.124 520.477 -5863.053 442.477 -5783.59 662.546 C -5719.066 749.83 -5671.107 786.586 -5721.923 567.751 C -5756.385 453.418 -5835.626 343.717 -5887.888 332.211 C -5961.77 403.786 -5932.856 583.04 -5834.426 754.95 C -5737.783 943.041 -5658.162 954.356 -5586.073 971.913 Z " fill="rgb(47,12,70)"/><path d=" M -3509.695 1741.421 C -3812.393 1789.866 -3784.873 2203.539 -3724.077 2574.74 C -3741.853 2543.267 -3828.127 2385.732 -3838.169 2256.195 C -3867.154 1725.441 -3733.604 1444.251 -3334.708 1659.768 C -3254.837 1751.347 -3197.133 1815.619 -3182.56 2020.651 C -3165.288 2385.797 -3342.336 2568.706 -3545.338 2537.906 C -3594.019 2501.458 -3691.855 2425.889 -3666.17 2199.075 C -3635.084 1931.907 -3552.797 1854.227 -3426.434 1905.417 C -3365.944 1948.463 -3310.663 2048.437 -3355.084 2159.568 C -3477.963 2492.478 -3539.013 2343.24 -3499.818 2132.012 C -3487.787 2242.58 -3452.669 2336.217 -3423.786 2100.804 C -3460.993 1996.493 -3507.309 1945.675 -3577.608 2170.42 C -3602.671 2290.464 -3558.641 2420.951 -3489.225 2449.206 C -3332.803 2405.698 -3256.48 2225.816 -3287.519 2029.868 C -3305.185 1819.14 -3415.062 1781.997 -3509.695 1741.421 Z " fill="rgb(47,12,70)"/><defs>
<filter id="Wl914UCH1leEa6QeKGSpJkAQEp1qAFQ3" x="-200%" y="-200%" width="400%" height="400%" filterUnits="objectBoundingBox" color-interpolation-filters="sRGB"><feGaussianBlur xmlns="http://www.w3.org/2000/svg" in="SourceGraphic" stdDeviation="82.00793310022544"/><feOffset xmlns="http://www.w3.org/2000/svg" dx="94" dy="0" result="pf_100_offsetBlur"/><feFlood xmlns="http://www.w3.org/2000/svg" flood-color="#000000" flood-opacity="0.65"/><feComposite xmlns="http://www.w3.org/2000/svg" in2="pf_100_offsetBlur" operator="in" result="pf_100_dropShadow"/><feBlend xmlns="http://www.w3.org/2000/svg" in="SourceGraphic" in2="pf_100_dropShadow" mode="normal"/></filter></defs><g filter="url(#Wl914UCH1leEa6QeKGSpJkAQEp1qAFQ3)"><path d=" M -3492.849 1744.727 C -3284.146 1734.105 -3237.099 2046.802 -3218.861 2332.969 C -3212.024 2306.757 -3179.599 2175.971 -3193.385 2077.834 C -3257.948 1677.611 -3391.056 1488.571 -3621.969 1710.866 C -3660.557 1791.485 -3688.735 1848.319 -3666.036 2003.448 C -3619.846 2278.379 -3473.366 2387.421 -3343.396 2333.106 C -3316.818 2298.412 -3263.769 2226.957 -3316.647 2061.804 C -3379.484 1867.396 -3446.406 1822.183 -3522.252 1879.865 C -3555.632 1921.303 -3576.562 2004.383 -3529.509 2080.386 C -3395.32 2309.639 -3378.338 2188.935 -3437.728 2037.489 C -3428.258 2121.79 -3436.797 2197.032 -3493.157 2025.96 C -3484.916 1942.437 -3462.178 1897.394 -3379.994 2054.115 C -3344.391 2139.753 -3353.029 2243.847 -3394.673 2275.635 C -3505.44 2267.349 -3584.54 2145.009 -3594.867 1994.112 C -3616.411 1834.258 -3549.296 1789.595 -3492.849 1744.727 Z " fill="rgb(82,22,123)"/></g><defs><filter id="s4ho2opwFriPpCSQ4KDeVKmUjDG6cPuE" x="-200%" y="-200%" width="400%" height="400%" filterUnits="objectBoundingBox" color-interpolation-filters="sRGB"><feGaussianBlur xmlns="http://www.w3.org/2000/svg" in="SourceGraphic" stdDeviation="82.00793310022544"/><feOffset xmlns="http://www.w3.org/2000/svg" dx="94" dy="0" result="pf_100_offsetBlur"/><feFlood xmlns="http://www.w3.org/2000/svg" flood-color="#000000" flood-opacity="0.65"/><feComposite xmlns="http://www.w3.org/2000/svg" in2="pf_100_offsetBlur" operator="in" result="pf_100_dropShadow"/><feBlend xmlns="http://www.w3.org/2000/svg" in="SourceGraphic" in2="pf_100_dropShadow" mode="normal"/></filter></defs><g filter="url(#s4ho2opwFriPpCSQ4KDeVKmUjDG6cPuE)"><path d=" M -4833.159 2555.754 C -3997.309 2133.4 -3863.741 2331.185 -3840.677 2561.238 C -3808.793 2523.351 -3656.448 2337.652 -3694.454 2273.644 C -3882.784 2029.091 -4381.792 2116.381 -5343.244 2779.459 C -5511.483 2930.689 -5633.976 3039.226 -5570.276 3138.615 C -5433.554 3302.974 -4867.187 3114.87 -4338.356 2807.493 C -4226.108 2722.704 -4001.678 2551.415 -4184.233 2502.351 C -4401.496 2445.768 -4661.052 2535.989 -4974.186 2739.528 C -5114.788 2844.03 -5212.891 2962.651 -5038.09 2940.327 C -4541.766 2888.294 -4452.892 2742.492 -4663.855 2719.044 C -4640.688 2778.717 -4687.909 2865.558 -4883.348 2817.873 C -4835.879 2723.921 -4737.173 2637.097 -4436.04 2620.401 C -4308.671 2629.666 -4361.313 2743.533 -4533.261 2855.396 C -4974.455 3066.608 -5269.251 3109.181 -5284.25 2989.276 C -5342.514 2883.212 -5066.539 2709.037 -4833.159 2555.754 Z " fill="rgb(68,18,102)"/></g><path d=" M -6694.728 2726.603 C -6222.308 2676.252 -6095.634 3306.171 -6035.964 3886.063 C -6022.145 3831.775 -5957.016 3561.138 -5994.552 3363.307 C -6166.539 2557.67 -6480.384 2191.263 -6989.593 2675.467 C -7071.905 2844.852 -7132.139 2964.399 -7070.75 3276.99 C -6948.435 3830.167 -6609.403 4031.921 -6318.258 3903.488 C -6260.232 3829.219 -6144.553 3676.491 -6274.996 3347.654 C -6429.89 2960.649 -6584.488 2877.845 -6752.727 3005.682 C -6825.74 3094.61 -6867.866 3266.576 -6756.334 3414.777 C -6437.466 3862.875 -6406.7 3614.882 -6551.027 3314.838 C -6524.162 3485.103 -6538.699 3639.409 -6677.415 3299.007 C -6664.084 3127.887 -6615.425 3033.085 -6419.089 3340.726 C -6332.896 3510.114 -6345.812 3723.154 -6438.177 3793.581 C -6689.8 3791.968 -6876.943 3553.875 -6910.017 3248.192 C -6969.092 2925.826 -6819.811 2825.689 -6694.728 2726.603 Z " fill="rgb(47,12,70)"/><path d=" M -5080.586 3043.046 C -3491.364 2772.658 -3398.42 3029.216 -3501.275 3294.887 C -3427.436 3259.966 -3071.79 3087.83 -3093.546 3006.093 C -3245.427 2683.133 -4094.141 2658.266 -6029.762 3169.588 C -6389.831 3298.839 -6651.041 3391.17 -6609.787 3519.247 C -6491.527 3738.814 -5474.21 3666.432 -4444.355 3449.981 C -4213.898 3381.95 -3752.05 3243.938 -4013.377 3143.313 C -4325.487 3025.6 -4794.142 3063.309 -5417.014 3215.808 C -5704.651 3299.097 -5933.088 3408.859 -5640.795 3426.897 C -4817.762 3490.942 -4587.544 3348.18 -4909.719 3269.469 C -4908.996 3342.634 -5037.005 3429.079 -5319.715 3326.822 C -5186.994 3232.404 -4976.895 3158.722 -4486.567 3214.387 C -4289.085 3256.381 -4442.142 3372.023 -4784.231 3455.871 C -5615.97 3585.347 -6111.898 3560.491 -6063.04 3421.284 C -6091.572 3287.01 -5545.776 3158.495 -5080.586 3043.046 Z " fill="rgb(47,12,70)"/>
<defs><filter id="F1MsqgdggPhhNnZ6jq4W4t4yjVvX6mLF" x="-200%" y="-200%" width="400%" height="400%" filterUnits="objectBoundingBox" color-interpolation-filters="sRGB"><feGaussianBlur xmlns="http://www.w3.org/2000/svg" in="SourceGraphic" stdDeviation="82.00793310022544"/><feOffset xmlns="http://www.w3.org/2000/svg" dx="94" dy="0" result="pf_100_offsetBlur"/><feFlood xmlns="http://www.w3.org/2000/svg" flood-color="#000000" flood-opacity="0.65"/><feComposite xmlns="http://www.w3.org/2000/svg" in2="pf_100_offsetBlur" operator="in" result="pf_100_dropShadow"/><feBlend xmlns="http://www.w3.org/2000/svg" in="SourceGraphic" in2="pf_100_dropShadow" mode="normal"/></filter></defs><g filter="url(#F1MsqgdggPhhNnZ6jq4W4t4yjVvX6mLF)"><path d=" M -7340.412 2938.437 C -7103.285 3014.233 -7013.189 2794.753 -6959.08 2585.83 C -6954.32 2607.731 -6932.495 2716.461 -6959.653 2785.661 C -7079.934 3065.161 -7253.942 3163.834 -7491.819 2921.899 C -7526.516 2848.832 -7552.089 2797.005 -7508.124 2687.913 C -7423.398 2496.509 -7243.421 2462.242 -7101.297 2545.257 C -7074.977 2579.942 -7022.698 2650.829 -7102.296 2757.64 C -7196.672 2883.178 -7278.361 2895.376 -7358.279 2827.421 C -7391.583 2785.464 -7405.827 2716.286 -7343.248 2674.516 C -7163.329 2546.003 -7157.971 2642.144 -7243.412 2736.548 C -7222.793 2676.333 -7223.796 2617.068 -7308.059 2727.191 C -7308.36 2792.576 -7287.629 2833.784 -7175.541 2742.827 C -7124.918 2690.101 -7122.679 2609.142 -7166.545 2571.743 C -7294.016 2541.968 -7398.584 2608.114 -7427.927 2718.05 C -7471.122 2831.064 -7399.663 2886.407 -7340.412 2938.437 Z " fill="rgb(68,18,102)"/></g><path d=" M -6074.688 3016.708 C -6100.572 3022.892 -6127.111 3030.249 -6154.489 3039 C -6568.433 3171.306 -6900.97 3359.249 -6898.112 3574.186 C -6893.976 3885.294 -6254.058 4129.412 -5469.995 4118.987 C -4685.933 4108.562 -4052.732 3847.518 -4056.868 3536.409 C -4059.708 3322.85 -4362.131 3140.858 -4805.151 3051.12 C -4813.229 3004.849 -4823.072 2956.612 -4834.422 2906.49 C -4933.803 2467.645 -4955.501 1976.958 -5477.49 1998.931 C -5884.907 2016.082 -5925.335 2574.98 -6048 2933.68 C -6057.716 2962.093 -6066.631 2989.778 -6074.688 3016.708 Z " fill-rule="evenodd" fill="rgb(189,156,122)" vector-effect="non-scaling-stroke" stroke-width="5.235" stroke="rgb(0,0,0)" stroke-linejoin="round" stroke-linecap="butt" stroke-miterlimit="1.414"/>
<mask id="_mask_yJ0EMACJaBdqzUPXobzPHRcClsLqrbuv" x="-200%" y="-200%" width="400%" height="400%"><rect x="-200%" y="-200%" width="400%" height="400%" style="fill:white;"/><path d=" M -3451.204 807.968 C -3645.933 1476.809 -3811.09 2024.606 -4116.807 2107.326 C -4441.384 2397.853 -4469.608 2159.811 -4458.74 1508.261 C -3967.799 1140.582 -3774.31 830.935 -3451.204 807.968 Z " fill-rule="evenodd" fill="black" stroke="none"/></mask><path d=" M -3451.204 807.968 C -3645.933 1476.809 -3811.09 2024.606 -4116.807 2107.326 C -4441.384 2397.853 -4469.608 2159.811 -4458.74 1508.261 C -3967.799 1140.582 -3774.31 830.935 -3451.204 807.968 Z " fill-rule="evenodd" fill="rgb(210,173,135)"/><path d=" M -3451.204 807.968 C -3645.933 1476.809 -3811.09 2024.606 -4116.807 2107.326 C -4441.384 2397.853 -4469.608 2159.811 -4458.74 1508.261 C -3967.799 1140.582 -3774.31 830.935 -3451.204 807.968 Z " fill-rule="evenodd" fill="rgb(210,173,135)" mask="url(#_mask_yJ0EMACJaBdqzUPXobzPHRcClsLqrbuv)" vector-effect="non-scaling-stroke" stroke-width="10.68" stroke="rgb(0,0,0)" stroke-linejoin="round" stroke-linecap="butt" stroke-miterlimit="1.414"/><path d=" M -3748.043 1242.359 C -3847.059 1586.313 -3931.071 1868.011 -4088.153 1910.075 C -4254.584 2059.076 -4269.499 1936.497 -4265.008 1601.133 C -4013.152 1412.7 -3914.168 1253.637 -3748.043 1242.359 Z " fill-rule="evenodd" fill="rgb(189,156,122)"/><defs><filter id="fF0xXVt288uLogf33inMX2F2QoGqai0U" x="-200%" y="-200%" width="400%" height="400%" filterUnits="objectBoundingBox" color-interpolation-filters="sRGB"><feGaussianBlur xmlns="http://www.w3.org/2000/svg" in="SourceGraphic" stdDeviation="82.00793310022544"/><feOffset xmlns="http://www.w3.org/2000/svg" dx="94" dy="0" result="pf_100_offsetBlur"/><feFlood xmlns="http://www.w3.org/2000/svg" flood-color="#000000" flood-opacity="0.65"/><feComposite xmlns="http://www.w3.org/2000/svg" in2="pf_100_offsetBlur" operator="in" result="pf_100_dropShadow"/><feBlend xmlns="http://www.w3.org/2000/svg" in="SourceGraphic" in2="pf_100_dropShadow" mode="normal"/></filter></defs>
<g filter="url(#fF0xXVt288uLogf33inMX2F2QoGqai0U)"><path d=" M -3713.782 2775.496 C -3293.395 2661.47 -3152.999 3052.124 -3074.687 3421.525 C -3064.661 3383.613 -3018.047 3195.258 -3060.13 3072.185 C -3248.613 2574.268 -3545.088 2388.245 -3979.722 2792.615 C -4046.06 2917.631 -4094.794 3006.231 -4026.441 3200.342 C -3893.245 3541.503 -3581.322 3615.411 -3326.433 3481.371 C -3277.726 3422.793 -3180.827 3302.957 -3311.644 3110.059 C -3466.834 2883.276 -3608.674 2855.595 -3753.656 2968.154 C -3815.137 3038.901 -3845.42 3158.711 -3739.287 3236.596 C -3434.805 3475.239 -3417.953 3307.605 -3559.95 3135.94 C -3528.597 3242.798 -3534.964 3346.312 -3673.677 3147.263 C -3669.114 3032.948 -3629.668 2962.534 -3440.825 3130.249 C -3356.445 3226.352 -3358.835 3368.04 -3438.421 3429.996 C -3663.553 3472.116 -3841.183 3348.355 -3883.913 3153.908 C -3950.617 2953.001 -3821.401 2861.829 -3713.782 2775.496 Z " fill="rgb(82,22,123)"/></g><path d=" M -7270.263 2467.777 C -6965.438 2500.266 -6883.702 2093.816 -6845.201 1719.645 C -6836.284 1754.674 -6794.26 1929.3 -6818.48 2056.949 C -6929.453 2576.78 -7131.959 2813.201 -7460.522 2500.773 C -7513.633 2391.478 -7552.499 2314.341 -7512.888 2112.644 C -7433.965 1755.712 -7215.208 1625.531 -7027.348 1708.402 C -6989.908 1756.323 -6915.267 1854.869 -6999.434 2067.049 C -7099.378 2316.761 -7199.131 2370.189 -7307.686 2287.704 C -7354.797 2230.324 -7381.978 2119.364 -7310.014 2023.738 C -7104.266 1734.607 -7084.415 1894.622 -7177.541 2088.223 C -7160.206 1978.362 -7169.587 1878.796 -7259.092 2098.438 C -7250.49 2208.852 -7219.093 2270.022 -7092.409 2071.519 C -7036.793 1962.223 -7045.127 1824.761 -7104.725 1779.318 C -7267.083 1780.359 -7387.836 1933.987 -7409.176 2131.226 C -7447.294 2339.23 -7350.972 2403.843 -7270.263 2467.777 Z " fill="rgb(47,12,70)"/><defs><filter id="oLLtH9Ir7hm87JSsruT9WrmfLJSoIlwh" x="-200%" y="-200%" width="400%" height="400%" filterUnits="objectBoundingBox" color-interpolation-filters="sRGB"><feGaussianBlur xmlns="http://www.w3.org/2000/svg" in="SourceGraphic" stdDeviation="82.00793310022544"/><feOffset xmlns="http://www.w3.org/2000/svg" dx="94" dy="0" result="pf_100_offsetBlur"/><feFlood xmlns="http://www.w3.org/2000/svg" flood-color="#000000" flood-opacity="0.65"/><feComposite xmlns="http://www.w3.org/2000/svg" in2="pf_100_offsetBlur" operator="in" result="pf_100_dropShadow"/><feBlend xmlns="http://www.w3.org/2000/svg" in="SourceGraphic" in2="pf_100_dropShadow" mode="normal"/></filter></defs>
<g filter="url(#oLLtH9Ir7hm87JSsruT9WrmfLJSoIlwh)"><path d=" M -6880.286 2783.556 C -7211.112 2598.896 -7060.931 2270.533 -6885.054 1993.137 C -6914.341 2010.625 -7057.853 2099.449 -7106.503 2201.591 C -7291.986 2625.912 -7220.665 2921.88 -6704.452 2934.596 C -6587.179 2897.163 -6502.996 2871.68 -6427.498 2709.377 C -6302.93 2416.178 -6452.024 2180.559 -6692.071 2108.969 C -6757.983 2115.794 -6891.118 2131.423 -6927.023 2330.949 C -6968.37 2566.371 -6896.969 2669.827 -6738.349 2687.958 C -6657.092 2681.33 -6565.412 2625.215 -6584.078 2512.239 C -6628.388 2178.672 -6740.789 2272.702 -6756.831 2465.817 C -6711.366 2380.285 -6644.47 2319.765 -6679.204 2527.919 C -6751.544 2596.253 -6818.892 2616.071 -6834.392 2396.931 C -6828.451 2285.848 -6740.82 2199.166 -6653.645 2209.014 C -6487.995 2319.69 -6452.747 2504.672 -6544.388 2651.606 C -6625.045 2817.133 -6760.854 2795.285 -6880.286 2783.556 Z " fill="rgb(82,22,123)"/></g><mask id="_mask_v2topd8pviPRlTv18qzKlob2hevK8MA9" x="-200%" y="-200%" width="400%" height="400%"><rect x="-200%" y="-200%" width="400%" height="400%" style="fill:white;"/><path d=" M -7472.389 840.428 C -7268.978 1516.813 -7096.647 2070.845 -6786.705 2157.236 C -6455.67 2453.374 -6429.445 2213.595 -6446.77 1556.434 C -6946.779 1180.875 -7145.445 866.731 -7472.389 840.428 Z " fill-rule="evenodd" fill="black" stroke="none"/></mask><path d=" M -7472.389 840.428 C -7268.978 1516.813 -7096.647 2070.845 -6786.705 2157.236 C -6455.67 2453.374 -6429.445 2213.595 -6446.77 1556.434 C -6946.779 1180.875 -7145.445 866.731 -7472.389 840.428 Z " fill-rule="evenodd" fill="rgb(210,173,135)"/><path d=" M -7472.389 840.428 C -7268.978 1516.813 -7096.647 2070.845 -6786.705 2157.236 C -6455.67 2453.374 -6429.445 2213.595 -6446.77 1556.434 C -6946.779 1180.875 -7145.445 866.731 -7472.389 840.428 Z " fill-rule="evenodd" fill="rgb(210,173,135)" mask="url(#_mask_v2topd8pviPRlTv18qzKlob2hevK8MA9)" vector-effect="non-scaling-stroke" stroke-width="20" stroke="rgb(0,0,0)" stroke-linejoin="round" stroke-linecap="butt" stroke-miterlimit="1.414"/><path d=" M -7156.937 1252.733 C -7057.921 1596.687 -6973.909 1878.384 -6816.828 1920.449 C -6650.397 2069.449 -6635.481 1946.871 -6639.972 1611.507 C -6891.829 1423.073 -6990.812 1264.01 -7156.937 1252.733 Z " fill-rule="evenodd" fill="rgb(189,156,122)"/><mask id="_mask_j9AD9ZWbcrNIHOG7PDaaRH50OKzid7wE" x="-200%" y="-200%" width="400%" height="400%"><rect x="-200%" y="-200%" width="400%" height="400%" style="fill:white;"/><path d=" M -6224.764 677.221 C -6209.796 796.404 -6035.133 931.637 -5889.704 865.744 C -5892.347 808.294 -5550.816 1260.224 -5406.352 989.254 C -5357.457 1084.443 -5144.495 1151.895 -4995.129 989.254 C -4782.54 1245.116 -4552.861 1223.679 -4298.917 1075.208 C -4443.943 1298.244 -4295.267 1247.882 -4186.33 1315.421 C -4173.905 1666.286 -4273.972 2114.114 -4401.214 2183.839 C -4602.826 2496.449 -4598.457 2765.738 -5480.514 3058.764 C -6348.791 2795.834 -6391.115 2392.498 -6592.617 2079.889 C -6751.42 1850.025 -6811.055 1620.16 -6811.055 1425.249 C -6733.033 1550.041 -6703.682 1414.659 -6652.571 1037.872 C -6437.807 1056.515 -6220.558 866.358 -6224.764 677.221 Z " fill-rule="evenodd" fill="black" stroke="none"/></mask><path d=" M -6224.764 677.221 C -6209.796 796.404 -6035.133 931.637 -5889.704 865.744 C -5892.347 808.294 -5550.816 1260.224 -5406.352 989.254 C -5357.457 1084.443 -5144.495 1151.895 -4995.129 989.254 C -4782.54 1245.116 -4552.861 1223.679 -4298.917 1075.208 C -4443.943 1298.244 -4295.267 1247.882 -4186.33 1315.421 C -4173.905 1666.286 -4273.972 2114.114 -4401.214 2183.839 C -4602.826 2496.449 -4598.457 2765.738 -5480.514 3058.764 C -6348.791 2795.834 -6391.115 2392.498 -6592.617 2079.889 C -6751.42 1850.025 -6811.055 1620.16 -6811.055 1425.249 C -6733.033 1550.041 -6703.682 1414.659 -6652.571 1037.872 C -6437.807 1056.515 -6220.558 866.358 -6224.764 677.221 Z " fill-rule="evenodd" fill="rgb(210,173,135)"/><path d=" M -6224.764 677.221 C -6209.796 796.404 -6035.133 931.637 -5889.704 865.744 C -5892.347 808.294 -5550.816 1260.224 -5406.352 989.254 C -5357.457 1084.443 -5144.495 1151.895 -4995.129 989.254 C -4782.54 1245.116 -4552.861 1223.679 -4298.917 1075.208 C -4443.943 1298.244 -4295.267 1247.882 -4186.33 1315.421 C -4173.905 1666.286 -4273.972 2114.114 -4401.214 2183.839 C -4602.826 2496.449 -4598.457 2765.738 -5480.514 3058.764 C -6348.791 2795.834 -6391.115 2392.498 -6592.617 2079.889 C -6751.42 1850.025 -6811.055 1620.16 -6811.055 1425.249 C -6733.033 1550.041 -6703.682 1414.659 -6652.571 1037.872 C -6437.807 1056.515 -6220.558 866.358 -6224.764 677.221 Z " fill-rule="evenodd" fill="rgb(210,173,135)" mask="url(#_mask_j9AD9ZWbcrNIHOG7PDaaRH50OKzid7wE)" vector-effect="non-scaling-stroke" stroke-width="20" stroke="rgb(0,0,0)" stroke-linejoin="round" stroke-linecap="butt" stroke-miterlimit="1.414"/><g><mask id="_mask_3oxQ1UKlYClf9hbIwjQ7oHUzOFWfhGLm" x="-200%" y="-200%" width="400%" height="400%"><rect x="-200%" y="-200%" width="400%" height="400%" style="fill:white;"/><path d=" M -5663.712 2245.74 C -5714.491 2244.986 -5763.216 2226.93 -5798.004 2184.752 C -5872.898 2093.908 -5728.999 1981.657 -5651.437 1802.056 C -5597.041 1667.317 -5601.424 1465.314 -5486.852 1376.179 C -5374.059 1467.361 -5389.352 1666.371 -5337.653 1802.056 C -5263.648 1983.009 -5115.034 2100.685 -5191.707 2190.158 C -5226.391 2230.623 -5273.567 2244.837 -5323.353 2243.597 C -5360.657 2293.249 -5423.347 2325.838 -5494.327 2325.838 C -5564.291 2325.838 -5626.2 2294.176 -5663.712 2245.74 Z " fill-rule="evenodd" fill="black" stroke="none"/></mask><path d=" M -5663.712 2245.74 C -5714.491 2244.986 -5763.216 2226.93 -5798.004 2184.752 C -5872.898 2093.908 -5728.999 1981.657 -5651.437 1802.056 C -5597.041 1667.317 -5601.424 1465.314 -5486.852 1376.179 C -5374.059 1467.361 -5389.352 1666.371 -5337.653 1802.056 C -5263.648 1983.009 -5115.034 2100.685 -5191.707 2190.158 C -5226.391 2230.623 -5273.567 2244.837 -5323.353 2243.597 C -5360.657 2293.249 -5423.347 2325.838 -5494.327 2325.838 C -5564.291 2325.838 -5626.2 2294.176 -5663.712 2245.74 Z " fill-rule="evenodd" fill="rgb(198,157,117)"/><path d=" M -5663.712 2245.74 C -5714.491 2244.986 -5763.216 2226.93 -5798.004 2184.752 C -5872.898 2093.908 -5728.999 1981.657 -5651.437 1802.056 C -5597.041 1667.317 -5601.424 1465.314 -5486.852 1376.179 C -5374.059 1467.361 -5389.352 1666.371 -5337.653 1802.056 C -5263.648 1983.009 -5115.034 2100.685 -5191.707 2190.158 C -5226.391 2230.623 -5273.567 2244.837 -5323.353 2243.597 C -5360.657 2293.249 -5423.347 2325.838 -5494.327 2325.838 C -5564.291 2325.838 -5626.2 2294.176 -5663.712 2245.74 Z " fill-rule="evenodd" fill="rgb(198,157,117)" mask="url(#_mask_3oxQ1UKlYClf9hbIwjQ7oHUzOFWfhGLm)" vector-effect="non-scaling-stroke" stroke-width="10.455" stroke="rgb(0,128,115)" stroke-linejoin="round" stroke-linecap="butt" stroke-miterlimit="1.414"/></g>
<mask id="_mask_BSVc6ttoT7NtvHnRPQXw1bWHSDUMg09t" x="-200%" y="-200%" width="400%" height="400%"><rect x="-200%" y="-200%" width="400%" height="400%" style="fill:white;"/><path d=" M -5497.686 2549.192 C -5427.618 2448.256 -5222.932 2428.114 -5089.962 2504.399 C -5068.091 2488.181 -5081.756 2501.485 -5089.962 2504.399 C -5161.056 2541.319 -5345.37 2748.192 -5497.686 2772.808 C -5650.002 2748.187 -5831.244 2553.652 -5902.299 2516.732 C -5917.856 2472.304 -5909.659 2505.584 -5902.299 2504.399 C -5757.899 2433.777 -5556.324 2453.991 -5497.686 2549.192 Z " fill-rule="evenodd" fill="black" stroke="none"/></mask><path d=" M -5497.686 2549.192 C -5427.618 2448.256 -5222.932 2428.114 -5089.962 2504.399 C -5068.091 2488.181 -5081.756 2501.485 -5089.962 2504.399 C -5161.056 2541.319 -5345.37 2748.192 -5497.686 2772.808 C -5650.002 2748.187 -5831.244 2553.652 -5902.299 2516.732 C -5917.856 2472.304 -5909.659 2505.584 -5902.299 2504.399 C -5757.899 2433.777 -5556.324 2453.991 -5497.686 2549.192 Z " fill-rule="evenodd" fill="rgb(3,49,44)"/><path d=" M -5497.686 2549.192 C -5427.618 2448.256 -5222.932 2428.114 -5089.962 2504.399 C -5068.091 2488.181 -5081.756 2501.485 -5089.962 2504.399 C -5161.056 2541.319 -5345.37 2748.192 -5497.686 2772.808 C -5650.002 2748.187 -5831.244 2553.652 -5902.299 2516.732 C -5917.856 2472.304 -5909.659 2505.584 -5902.299 2504.399 C -5757.899 2433.777 -5556.324 2453.991 -5497.686 2549.192 Z " fill-rule="evenodd" fill="rgb(3,49,44)" mask="url(#_mask_BSVc6ttoT7NtvHnRPQXw1bWHSDUMg09t)" vector-effect="non-scaling-stroke" stroke-width="10.455" stroke="rgb(58,15,87)" stroke-linejoin="round" stroke-linecap="butt" stroke-miterlimit="1.414"/>
<g><path d=" M -4575.862 1830.769 C -4797.797 1205.473 -5106.548 1295.246 -5198.705 1679.344 L -5225.984 1796.407 C -5141.073 1445.671 -4886.921 1305.339 -4575.862 1830.769 Z " fill-rule="evenodd" fill="rgb(0,0,0)"/><path d=" M -4450.573 1533.047 L -4620.701 1756.887 L -4578.572 1830.868 L -4450.573 1533.047 Z " fill-rule="evenodd" fill="rgb(0,0,0)"/></g><g><path d=" M -6414.188 1845.145 C -6192.251 1219.802 -5883.5 1309.58 -5791.344 1693.707 L -5764.065 1810.778 C -5848.976 1460.017 -6103.127 1319.675 -6414.188 1845.145 Z " fill-rule="evenodd" fill="rgb(0,0,0)"/><path d=" M -6539.476 1547.401 L -6369.348 1771.257 L -6411.477 1845.244 L -6539.476 1547.401 Z " fill-rule="evenodd" fill="rgb(0,0,0)"/></g><path d=" M -6765.195 6435.417 C -7105.406 6206.345 -7110.885 5740.468 -6778.895 5270.571 C -6546.718 4918.333 -5943.408 4561.73 -5439.911 4322.786 C -4930.933 4549.873 -4319.275 4892.135 -4079.007 5238.816 C -3736.057 5700.775 -3730.577 6166.704 -4065.306 6403.663 C -4416.496 6820.284 -6441.408 6844.128 -6765.195 6435.417 Z " fill-rule="evenodd" fill="rgb(0,150,136)"/><defs><filter id="NTRnY5CJ6HEpryL8b22dGPRR9HtkPMsD" x="-200%" y="-200%" width="400%" height="400%" filterUnits="objectBoundingBox" color-interpolation-filters="sRGB"><feOffset xmlns="http://www.w3.org/2000/svg" in="SourceGraphic" dx="30" dy="42"/><feGaussianBlur xmlns="http://www.w3.org/2000/svg" stdDeviation="82.86665491279325" result="pf_100_offsetBlur"/><feComposite xmlns="http://www.w3.org/2000/svg" in="SourceGraphic" in2="pf_100_offsetBlur" result="pf_100_inverse" operator="out"/><feFlood xmlns="http://www.w3.org/2000/svg" flood-color="#000000" flood-opacity="0.5" result="pf_100_color"/><feComposite xmlns="http://www.w3.org/2000/svg" in="pf_100_color" in2="pf_100_inverse" operator="in" result="pf_100_shadow"/><feComposite xmlns="http://www.w3.org/2000/svg" in="pf_100_shadow" in2="SourceGraphic" operator="over"/></filter></defs><g filter="url(#NTRnY5CJ6HEpryL8b22dGPRR9HtkPMsD)"><mask id="_mask_RHTz6wa88USno7gjozDGbVkLfmE9gqmO" x="-200%" y="-200%" width="400%" height="400%"><rect x="-200%" y="-200%" width="400%" height="400%" style="fill:white;"/><path d=" M -4272.072 4134.665 C -4393.642 4328.798 -4538.119 4549.516 -4599.736 4786.454 C -4824.53 5139.953 -5019.969 5389.397 -5501.583 5625.08 C -5983.196 5389.345 -6095.463 5139.953 -6320.135 4786.454 C -6356.206 4555.043 -6468.241 4316.275 -6577.167 4105.983 C -6646.638 4149.421 -6720.777 4195.95 -6798.042 4244.639 C -6940.392 4334.343 -7163.838 4323.367 -7296.711 4220.143 L -7478.787 4078.694 C -7611.66 3975.47 -7610.477 3809.406 -7476.147 3708.085 C -7256.798 3542.638 -6791.464 3257.79 -6568.106 3159.648 C -6414.063 3091.964 -6253.631 3053.193 -6210.066 3073.123 C -6210.066 3073.123 -6172.498 3147.209 -6133.315 3235.214 C -5905.21 3215.912 -5680.738 3280.314 -5528.307 3504.086 C -5348.771 3240.525 -5050.777 3198.048 -4766.815 3253.044 C -4735.815 3166.171 -4706.351 3092.547 -4706.351 3092.547 C -4652.806 3061.896 -4484.271 3091.964 -4330.229 3159.648 C -4106.871 3257.79 -3624.216 3542.638 -3404.866 3708.085 C -3270.536 3809.406 -3269.353 3975.47 -3402.226 4078.694 L -3584.302 4220.143 C -3717.175 4323.367 -3941.69 4336.068 -4085.357 4248.487 L -4272.072 4134.665 Z " fill-rule="evenodd" fill="black" stroke="none"/></mask><path d=" M -4272.072 4134.665 C -4393.642 4328.798 -4538.119 4549.516 -4599.736 4786.454 C -4824.53 5139.953 -5019.969 5389.397 -5501.583 5625.08 C -5983.196 5389.345 -6095.463 5139.953 -6320.135 4786.454 C -6356.206 4555.043 -6468.241 4316.275 -6577.167 4105.983 C -6646.638 4149.421 -6720.777 4195.95 -6798.042 4244.639 C -6940.392 4334.343 -7163.838 4323.367 -7296.711 4220.143 L -7478.787 4078.694 C -7611.66 3975.47 -7610.477 3809.406 -7476.147 3708.085 C -7256.798 3542.638 -6791.464 3257.79 -6568.106 3159.648 C -6414.063 3091.964 -6253.631 3053.193 -6210.066 3073.123 C -6210.066 3073.123 -6172.498 3147.209 -6133.315 3235.214 C -5905.21 3215.912 -5680.738 3280.314 -5528.307 3504.086 C -5348.771 3240.525 -5050.777 3198.048 -4766.815 3253.044 C -4735.815 3166.171 -4706.351 3092.547 -4706.351 3092.547 C -4652.806 3061.896 -4484.271 3091.964 -4330.229 3159.648 C -4106.871 3257.79 -3624.216 3542.638 -3404.866 3708.085 C -3270.536 3809.406 -3269.353 3975.47 -3402.226 4078.694 L -3584.302 4220.143 C -3717.175 4323.367 -3941.69 4336.068 -4085.357 4248.487 L -4272.072 4134.665 Z " fill-rule="evenodd" fill="rgb(0,150,136)"/><path d=" M -4272.072 4134.665 C -4393.642 4328.798 -4538.119 4549.516 -4599.736 4786.454 C -4824.53 5139.953 -5019.969 5389.397 -5501.583 5625.08 C -5983.196 5389.345 -6095.463 5139.953 -6320.135 4786.454 C -6356.206 4555.043 -6468.241 4316.275 -6577.167 4105.983 C -6646.638 4149.421 -6720.777 4195.95 -6798.042 4244.639 C -6940.392 4334.343 -7163.838 4323.367 -7296.711 4220.143 L -7478.787 4078.694 C -7611.66 3975.47 -7610.477 3809.406 -7476.147 3708.085 C -7256.798 3542.638 -6791.464 3257.79 -6568.106 3159.648 C -6414.063 3091.964 -6253.631 3053.193 -6210.066 3073.123 C -6210.066 3073.123 -6172.498 3147.209 -6133.315 3235.214 C -5905.21 3215.912 -5680.738 3280.314 -5528.307 3504.086 C -5348.771 3240.525 -5050.777 3198.048 -4766.815 3253.044 C -4735.815 3166.171 -4706.351 3092.547 -4706.351 3092.547 C -4652.806 3061.896 -4484.271 3091.964 -4330.229 3159.648 C -4106.871 3257.79 -3624.216 3542.638 -3404.866 3708.085 C -3270.536 3809.406 -3269.353 3975.47 -3402.226 4078.694 L -3584.302 4220.143 C -3717.175 4323.367 -3941.69 4336.068 -4085.357 4248.487 L -4272.072 4134.665 Z " fill-rule="evenodd" fill="rgb(0,150,136)" mask="url(#_mask_RHTz6wa88USno7gjozDGbVkLfmE9gqmO)" vector-effect="non-scaling-stroke" stroke-width="10.455" stroke="rgb(0,0,0)" stroke-linejoin="round" stroke-linecap="butt" stroke-miterlimit="1.414"/></g>
<g><mask id="_mask_g48R9oIJq7nRIQ52afuYsHzJwCCKUFAv"><path d=" M -8941.206 3163.186 C -8896.403 3153.418 -8847.039 3205.071 -8831.038 3278.462 C -8815.037 3351.853 -8838.42 3419.368 -8883.223 3429.136 C -8928.025 3438.904 -8977.39 3387.25 -8993.391 3313.859 C -9009.392 3240.468 -8986.008 3172.954 -8941.206 3163.186 Z " fill="white" stroke="none"/></mask><path d=" M -8941.206 3163.186 C -8896.403 3153.418 -8847.039 3205.071 -8831.038 3278.462 C -8815.037 3351.853 -8838.42 3419.368 -8883.223 3429.136 C -8928.025 3438.904 -8977.39 3387.25 -8993.391 3313.859 C -9009.392 3240.468 -8986.008 3172.954 -8941.206 3163.186 Z " fill="rgb(189,156,122)"/><path d=" M -8941.206 3163.186 C -8896.403 3153.418 -8847.039 3205.071 -8831.038 3278.462 C -8815.037 3351.853 -8838.42 3419.368 -8883.223 3429.136 C -8928.025 3438.904 -8977.39 3387.25 -8993.391 3313.859 C -9009.392 3240.468 -8986.008 3172.954 -8941.206 3163.186 Z " fill="rgb(189,156,122)" mask="url(#_mask_g48R9oIJq7nRIQ52afuYsHzJwCCKUFAv)" vector-effect="non-scaling-stroke" stroke-width="8" stroke="rgb(0,0,0)" stroke-linejoin="miter" stroke-linecap="square" stroke-miterlimit="3"/><g><mask id="_mask_OlnJtOC5I4Uc390f7hAugNRbku56ZBnv"><path d=" M -2091.418 3581.747 C -2143.036 3555.725 -2152.91 3471.054 -2113.454 3392.786 C -2073.997 3314.518 -2000.056 3272.1 -1948.438 3298.122 C -1896.819 3324.143 -1886.945 3408.814 -1926.401 3487.082 C -1965.858 3565.351 -2039.799 3607.768 -2091.418 3581.747 Z " fill="white" stroke="none"/></mask><path d=" M -2091.418 3581.747 C -2143.036 3555.725 -2152.91 3471.054 -2113.454 3392.786 C -2073.997 3314.518 -2000.056 3272.1 -1948.438 3298.122 C -1896.819 3324.143 -1886.945 3408.814 -1926.401 3487.082 C -1965.858 3565.351 -2039.799 3607.768 -2091.418 3581.747 Z " fill="rgb(189,156,122)"/><path d=" M -2091.418 3581.747 C -2143.036 3555.725 -2152.91 3471.054 -2113.454 3392.786 C -2073.997 3314.518 -2000.056 3272.1 -1948.438 3298.122 C -1896.819 3324.143 -1886.945 3408.814 -1926.401 3487.082 C -1965.858 3565.351 -2039.799 3607.768 -2091.418 3581.747 Z " fill="rgb(189,156,122)" mask="url(#_mask_OlnJtOC5I4Uc390f7hAugNRbku56ZBnv)" vector-effect="non-scaling-stroke" stroke-width="8" stroke="rgb(0,0,0)" stroke-linejoin="miter" stroke-linecap="square" stroke-miterlimit="3"/><g filter="url(#u8tKPYDtSGNuACoa6bHFHtf7lWuB1hY2)"><mask id="_mask_GdsaV3THv30Dlua6q2jlRuak33NZ3UkL" x="-200%" y="-200%" width="400%" height="400%"><rect x="-200%" y="-200%" width="400%" height="400%" style="fill:white;"/><path d=" M -2050.33 2588 C -2601.686 2929.915 -3282.859 3173.809 -4093.908 3319.621 C -4499.941 3422.86 -5374.71 3719.7 -5448.148 4362.824 L -5448.148 8500 C -5344.93 8492.809 -5241.797 8385.072 -5138.778 8338 C -4987.338 8308.328 -4887.059 8220.682 -4838 8075 C -4800.356 7937.657 -4770.968 7856.687 -4200 7582 C -3844.904 7390.342 -3638.42 7603.335 -3550 7713 C -3385.869 7719.537 -3081.382 7523.711 -2748.218 7257.285 C -2463.243 7074.74 -2193.387 6893.453 -2050.33 6845.189 L -2050.33 2588 Z " fill-rule="evenodd" fill="black" stroke="none"/></mask><path d=" M -2050.33 2588 C -2601.686 2929.915 -3282.859 3173.809 -4093.908 3319.621 C -4499.941 3422.86 -5374.71 3719.7 -5448.148 4362.824 L -5448.148 8500 C -5344.93 8492.809 -5241.797 8385.072 -5138.778 8338 C -4987.338 8308.328 -4887.059 8220.682 -4838 8075 C -4800.356 7937.657 -4770.968 7856.687 -4200 7582 C -3844.904 7390.342 -3638.42 7603.335 -3550 7713 C -3385.869 7719.537 -3081.382 7523.711 -2748.218 7257.285 C -2463.243 7074.74 -2193.387 6893.453 -2050.33 6845.189 L -2050.33 2588 Z " fill-rule="evenodd" fill="rgb(0,140,255)"/><path d=" M -2050.33 2588 C -2601.686 2929.915 -3282.859 3173.809 -4093.908 3319.621 C -4499.941 3422.86 -5374.71 3719.7 -5448.148 4362.824 L -5448.148 8500 C -5344.93 8492.809 -5241.797 8385.072 -5138.778 8338 C -4987.338 8308.328 -4887.059 8220.682 -4838 8075 C -4800.356 7937.657 -4770.968 7856.687 -4200 7582 C -3844.904 7390.342 -3638.42 7603.335 -3550 7713 C -3385.869 7719.537 -3081.382 7523.711 -2748.218 7257.285 C -2463.243 7074.74 -2193.387 6893.453 -2050.33 6845.189 L -2050.33 2588 Z " fill-rule="evenodd" fill="rgb(0,140,255)" mask="url(#_mask_GdsaV3THv30Dlua6q2jlRuak33NZ3UkL)" vector-effect="non-scaling-stroke" stroke-width="10.471" stroke="rgb(0,0,0)" stroke-linejoin="round" stroke-linecap="butt" stroke-miterlimit="1.414"/><defs><filter id="ahIZvoHDlyUBMxFc24mpoWffa1VBD56j" x="-200%" y="-200%" width="400%" height="400%" filterUnits="objectBoundingBox" color-interpolation-filters="sRGB"><feGaussianBlur xmlns="http://www.w3.org/2000/svg" in="SourceGraphic" stdDeviation="4.293609062839028"/><feOffset xmlns="http://www.w3.org/2000/svg" dx="0" dy="0" result="pf_100_offsetBlur"/><feFlood xmlns="http://www.w3.org/2000/svg" flood-color="#000000" flood-opacity="0.65"/><feComposite xmlns="http://www.w3.org/2000/svg" in2="pf_100_offsetBlur" operator="in" result="pf_100_dropShadow"/><feBlend xmlns="http://www.w3.org/2000/svg" in="SourceGraphic" in2="pf_100_dropShadow" mode="normal" result="_out_MbKUwIl9giwtu7ybhgpapWEF8p7D8EeP"/><feOffset xmlns="http://www.w3.org/2000/svg" in="_out_MbKUwIl9giwtu7ybhgpapWEF8p7D8EeP" dx="-143" dy="31"/><feGaussianBlur xmlns="http://www.w3.org/2000/svg" stdDeviation="85.87218125678056" result="pf_101_offsetBlur"/><feComposite xmlns="http://www.w3.org/2000/svg" in="_out_MbKUwIl9giwtu7ybhgpapWEF8p7D8EeP" in2="pf_101_offsetBlur" result="pf_101_inverse" operator="out"/><feFlood xmlns="http://www.w3.org/2000/svg" flood-color="#100F57" flood-opacity="0.46" result="pf_101_color"/><feComposite xmlns="http://www.w3.org/2000/svg" in="pf_101_color" in2="pf_101_inverse" operator="in" result="pf_101_shadow"/><feComposite xmlns="http://www.w3.org/2000/svg" in="pf_101_shadow" in2="_out_MbKUwIl9giwtu7ybhgpapWEF8p7D8EeP" operator="over" result="_out_lKZFuW9YDU4uvjKdPwCk9NvLggLprKDr"/><feMerge><feMergeNode in="_out_lKZFuW9YDU4uvjKdPwCk9NvLggLprKDr"/></feMerge></filter></defs><g filter="url(#ahIZvoHDlyUBMxFc24mpoWffa1VBD56j)"><mask id="_mask_vixs28JWfnJ7KOeIO1GGXbIbDRDW0ruU" x="-200%" y="-200%" width="400%" height="400%"><rect x="-200%" y="-200%" width="400%" height="400%" style="fill:white;"/><path d=" M -8922.286 2588 C -8484.044 2847.585 -7777.391 3209.019 -6802.388 3302.626 C -6396.355 3405.866 -5521.585 3702.705 -5448.148 4345.829 L -5448.148 8500 C -5687.5 8425 -5787.5 8498.5 -5813 8075 C -5975 7711 -6931.114 7541.222 -7078 7872.731 C -7212.863 8064.876 -7189.662 7911.196 -7453 7713 C -7863.064 7368.309 -8548.835 7217.274 -8845.965 7008 L -8922.286 2588 Z " fill-rule="evenodd" fill="black" stroke="none"/></mask><path d=" M -8922.286 2588 C -8484.044 2847.585 -7777.391 3209.019 -6802.388 3302.626 C -6396.355 3405.866 -5521.585 3702.705 -5448.148 4345.829 L -5448.148 8500 C -5687.5 8425 -5787.5 8498.5 -5813 8075 C -5975 7711 -6931.114 7541.222 -7078 7872.731 C -7212.863 8064.876 -7189.662 7911.196 -7453 7713 C -7863.064 7368.309 -8548.835 7217.274 -8845.965 7008 L -8922.286 2588 Z " fill-rule="evenodd" fill="rgb(0,140,255)"/><path d=" M -8922.286 2588 C -8484.044 2847.585 -7777.391 3209.019 -6802.388 3302.626 C -6396.355 3405.866 -5521.585 3702.705 -5448.148 4345.829 L -5448.148 8500 C -5687.5 8425 -5787.5 8498.5 -5813 8075 C -5975 7711 -6931.114 7541.222 -7078 7872.731 C -7212.863 8064.876 -7189.662 7911.196 -7453 7713 C -7863.064 7368.309 -8548.835 7217.274 -8845.965 7008 L -8922.286 2588 Z " fill-rule="evenodd" fill="rgb(0,140,255)" mask="url(#_mask_vixs28JWfnJ7KOeIO1GGXbIbDRDW0ruU)" vector-effect="non-scaling-stroke" stroke-width="10.471" stroke="rgb(0,0,0)" stroke-linejoin="round" stroke-linecap="butt" stroke-miterlimit="1.414"/></g></g><defs><filter id="u8tKPYDtSGNuACoa6bHFHtf7lWuB1hY2" x="-200%" y="-200%" width="400%" height="400%" filterUnits="objectBoundingBox" color-interpolation-filters="sRGB"><feGaussianBlur xmlns="http://www.w3.org/2000/svg" in="SourceGraphic" stdDeviation="2.146804531419514"/><feOffset xmlns="http://www.w3.org/2000/svg" dx="-2" dy="0" result="pf_100_offsetBlur"/><feFlood xmlns="http://www.w3.org/2000/svg" flood-color="#000000" flood-opacity="0.65"/><feComposite xmlns="http://www.w3.org/2000/svg" in2="pf_100_offsetBlur" operator="in" result="pf_100_dropShadow"/><feBlend xmlns="http://www.w3.org/2000/svg" in="SourceGraphic" in2="pf_100_dropShadow" mode="normal"/></filter></defs></g></g><g clip-path="url(#_clipPath_NY5EX39sRyT757qbAReeCeGLr2MDECXK)"><text transform="matrix(46.86,-19.785,23.7,129.406,-4826.746,5506.613)" style="font-family:'Oregano';font-weight:400;font-size:11px;font-style:normal;font-variant-ligatures:none;letter-spacing:1;fill:#ffffff;stroke:none;">Welcome to </text><text transform="matrix(46.86,-19.785,23.7,129.406,-4570.958,6903.28)" style="font-family:'Oregano';font-weight:400;font-size:11px;font-style:normal;font-variant-ligatures:none;letter-spacing:1;fill:#ffffff;stroke:none;">Greetery !</text></g><defs><clipPath id="_clipPath_NY5EX39sRyT757qbAReeCeGLr2MDECXK"><rect x="0" y="0" width="91.385" height="41.776" transform="matrix(46.86,-19.785,23.7,129.406,-5078.15,4133.884)"/></clipPath></defs><g><mask id="_mask_WA2EbRZNjbX3QJ7QUnHlOozWK4WHXNXs"><path d=" M -9101.706 3595.969 C -9069.672 3407.444 -9017.598 3386.103 -8821.45 3480.706 C -8693.866 3542.241 -8624.906 3556.248 -8613.926 3633.419 C -8598.702 3740.427 -8681.656 3733.41 -8835.438 3727.277 C -9085.26 3717.313 -9125.196 3734.215 -9101.706 3595.969 Z " fill="white" stroke="none"/></mask><path d=" M -9101.706 3595.969 C -9069.672 3407.444 -9017.598 3386.103 -8821.45 3480.706 C -8693.866 3542.241 -8624.906 3556.248 -8613.926 3633.419 C -8598.702 3740.427 -8681.656 3733.41 -8835.438 3727.277 C -9085.26 3717.313 -9125.196 3734.215 -9101.706 3595.969 Z " fill="rgb(210,173,135)"/><path d=" M -9101.706 3595.969 C -9069.672 3407.444 -9017.598 3386.103 -8821.45 3480.706 C -8693.866 3542.241 -8624.906 3556.248 -8613.926 3633.419 C -8598.702 3740.427 -8681.656 3733.41 -8835.438 3727.277 C -9085.26 3717.313 -9125.196 3734.215 -9101.706 3595.969 Z " fill="rgb(210,173,135)" mask="url(#_mask_WA2EbRZNjbX3QJ7QUnHlOozWK4WHXNXs)" vector-effect="non-scaling-stroke" stroke-width="8" stroke="rgb(0,0,0)" stroke-linejoin="miter" stroke-linecap="square" stroke-miterlimit="3"/><mask id="_mask_cf1CKvG0Wvxapja69QDfmxyzNDJP7qDY"><path d=" M -9049.094 4234.223 C -9020.656 4131.495 -9017.715 4096.648 -8835.536 4153.041 C -8735.587 4183.98 -8663.911 4239.839 -8680.531 4299.324 C -8697.897 4361.48 -8772.726 4377.668 -8861.524 4386.258 C -9030.856 4402.639 -9075.075 4328.075 -9049.094 4234.223 Z " fill="white" stroke="none"/></mask><path d=" M -9049.094 4234.223 C -9020.656 4131.495 -9017.715 4096.648 -8835.536 4153.041 C -8735.587 4183.98 -8663.911 4239.839 -8680.531 4299.324 C -8697.897 4361.48 -8772.726 4377.668 -8861.524 4386.258 C -9030.856 4402.639 -9075.075 4328.075 -9049.094 4234.223 Z " fill="rgb(210,173,135)"/><path d=" M -9049.094 4234.223 C -9020.656 4131.495 -9017.715 4096.648 -8835.536 4153.041 C -8735.587 4183.98 -8663.911 4239.839 -8680.531 4299.324 C -8697.897 4361.48 -8772.726 4377.668 -8861.524 4386.258 C -9030.856 4402.639 -9075.075 4328.075 -9049.094 4234.223 Z " fill="rgb(210,173,135)" mask="url(#_mask_cf1CKvG0Wvxapja69QDfmxyzNDJP7qDY)" vector-effect="non-scaling-stroke" stroke-width="8" stroke="rgb(0,0,0)" stroke-linejoin="miter" stroke-linecap="square" stroke-miterlimit="3"/><mask id="_mask_f9WhOvfiFpdsSejG3RhJZInwxzGdTmtz"><path d=" M -9143.961 4033.513 C -9190.905 4191.637 -9065.921 4258.428 -8846.532 4184.71 C -8720.294 4142.293 -8537.401 4139.955 -8543.689 4064.825 C -8557.89 3895.114 -8703.806 3971.26 -8836.726 3974.078 C -9012.073 3977.796 -9107.628 3911.133 -9143.961 4033.513 Z " fill="white" stroke="none"/></mask><path d=" M -9143.961 4033.513 C -9190.905 4191.637 -9065.921 4258.428 -8846.532 4184.71 C -8720.294 4142.293 -8537.401 4139.955 -8543.689 4064.825 C -8557.89 3895.114 -8703.806 3971.26 -8836.726 3974.078 C -9012.073 3977.796 -9107.628 3911.133 -9143.961 4033.513 Z " fill="rgb(210,173,135)"/><path d=" M -9143.961 4033.513 C -9190.905 4191.637 -9065.921 4258.428 -8846.532 4184.71 C -8720.294 4142.293 -8537.401 4139.955 -8543.689 4064.825 C -8557.89 3895.114 -8703.806 3971.26 -8836.726 3974.078 C -9012.073 3977.796 -9107.628 3911.133 -9143.961 4033.513 Z " fill="rgb(210,173,135)" mask="url(#_mask_f9WhOvfiFpdsSejG3RhJZInwxzGdTmtz)" vector-effect="non-scaling-stroke" stroke-width="8" stroke="rgb(0,0,0)" stroke-linejoin="miter" stroke-linecap="square" stroke-miterlimit="3"/><mask id="_mask_DsqUtW5W3DFsXvJp8Ep7YuZARnY00JrN"><path d=" M -9141.823 3877.894 C -9116.944 3695.471 -9121.94 3690.222 -8820.882 3740.93 C -8634.081 3772.394 -8531.229 3747.001 -8533.343 3836.715 C -8536.134 3955.24 -8613.103 3962.595 -8803.79 3993.493 C -9086.773 4039.347 -9164.449 4043.799 -9141.823 3877.894 Z " fill="white" stroke="none"/></mask><path d=" M -9141.823 3877.894 C -9116.944 3695.471 -9121.94 3690.222 -8820.882 3740.93 C -8634.081 3772.394 -8531.229 3747.001 -8533.343 3836.715 C -8536.134 3955.24 -8613.103 3962.595 -8803.79 3993.493 C -9086.773 4039.347 -9164.449 4043.799 -9141.823 3877.894 Z " fill="rgb(210,173,135)"/><path d=" M -9141.823 3877.894 C -9116.944 3695.471 -9121.94 3690.222 -8820.882 3740.93 C -8634.081 3772.394 -8531.229 3747.001 -8533.343 3836.715 C -8536.134 3955.24 -8613.103 3962.595 -8803.79 3993.493 C -9086.773 4039.347 -9164.449 4043.799 -9141.823 3877.894 Z " fill="rgb(210,173,135)" mask="url(#_mask_DsqUtW5W3DFsXvJp8Ep7YuZARnY00JrN)" vector-effect="non-scaling-stroke" stroke-width="8" stroke="rgb(0,0,0)" stroke-linejoin="miter" stroke-linecap="square" stroke-miterlimit="3"/></g><g><mask id="_mask_7eml3g7DaKXAgjHXc5uMSckOBMM2sGIP"><path d=" M -1667.803 3721.592 C -1694.29 3542.422 -1752.7 3517.381 -1982.134 3586.445 C -2131.37 3631.367 -2210.997 3637.672 -2227.71 3708.646 C -2250.884 3807.064 -2155.629 3808.66 -1979.413 3818.038 C -1693.147 3833.274 -1648.381 3852.977 -1667.803 3721.592 Z " fill="white" stroke="none"/></mask><path d=" M -1667.803 3721.592 C -1694.29 3542.422 -1752.7 3517.381 -1982.134 3586.445 C -2131.37 3631.367 -2210.997 3637.672 -2227.71 3708.646 C -2250.884 3807.064 -2155.629 3808.66 -1979.413 3818.038 C -1693.147 3833.274 -1648.381 3852.977 -1667.803 3721.592 Z " fill="rgb(210,173,135)"/><path d=" M -1667.803 3721.592 C -1694.29 3542.422 -1752.7 3517.381 -1982.134 3586.445 C -2131.37 3631.367 -2210.997 3637.672 -2227.71 3708.646 C -2250.884 3807.064 -2155.629 3808.66 -1979.413 3818.038 C -1693.147 3833.274 -1648.381 3852.977 -1667.803 3721.592 Z " fill="rgb(210,173,135)" mask="url(#_mask_7eml3g7DaKXAgjHXc5uMSckOBMM2sGIP)" vector-effect="non-scaling-stroke" stroke-width="8" stroke="rgb(0,0,0)" stroke-linejoin="miter" stroke-linecap="square" stroke-miterlimit="3"/><mask id="_mask_fzEcxcrGMEiga12n5I2emBufa6bWy8jb"><path d=" M -1762.343 4312.353 C -1789.337 4213.644 -1790.825 4180.819 -2002.225 4215.578 C -2118.207 4234.648 -2203.192 4279.763 -2187.387 4336.936 C -2170.872 4396.676 -2086.158 4419.14 -1985.06 4435.882 C -1792.271 4467.809 -1737.682 4402.533 -1762.343 4312.353 Z " fill="white" stroke="none"/></mask><path d=" M -1762.343 4312.353 C -1789.337 4213.644 -1790.825 4180.819 -2002.225 4215.578 C -2118.207 4234.648 -2203.192 4279.763 -2187.387 4336.936 C -2170.872 4396.676 -2086.158 4419.14 -1985.06 4435.882 C -1792.271 4467.809 -1737.682 4402.533 -1762.343 4312.353 Z " fill="rgb(210,173,135)"/><path d=" M -1762.343 4312.353 C -1789.337 4213.644 -1790.825 4180.819 -2002.225 4215.578 C -2118.207 4234.648 -2203.192 4279.763 -2187.387 4336.936 C -2170.872 4396.676 -2086.158 4419.14 -1985.06 4435.882 C -1792.271 4467.809 -1737.682 4402.533 -1762.343 4312.353 Z " fill="rgb(210,173,135)" mask="url(#_mask_fzEcxcrGMEiga12n5I2emBufa6bWy8jb)" vector-effect="non-scaling-stroke" stroke-width="8" stroke="rgb(0,0,0)" stroke-linejoin="miter" stroke-linecap="square" stroke-miterlimit="3"/><mask id="_mask_KOnMi5umHxZFoxAUAdab2jAbGLAgxHcI"><path d=" M -1643.034 4134.271 C -1597.856 4286.521 -1744.401 4336.606 -1991.354 4246.227 C -2133.453 4194.223 -2342.508 4174.076 -2331.272 4104.545 C -2305.891 3947.484 -2143.102 4032.913 -1991.228 4048.6 C -1790.879 4069.294 -1678 4016.438 -1643.034 4134.271 Z " fill="white" stroke="none"/></mask><path d=" M -1643.034 4134.271 C -1597.856 4286.521 -1744.401 4336.606 -1991.354 4246.227 C -2133.453 4194.223 -2342.508 4174.076 -2331.272 4104.545 C -2305.891 3947.484 -2143.102 4032.913 -1991.228 4048.6 C -1790.879 4069.294 -1678 4016.438 -1643.034 4134.271 Z " fill="rgb(210,173,135)"/><path d=" M -1643.034 4134.271 C -1597.856 4286.521 -1744.401 4336.606 -1991.354 4246.227 C -2133.453 4194.223 -2342.508 4174.076 -2331.272 4104.545 C -2305.891 3947.484 -2143.102 4032.913 -1991.228 4048.6 C -1790.879 4069.294 -1678 4016.438 -1643.034 4134.271 Z " fill="rgb(210,173,135)" mask="url(#_mask_KOnMi5umHxZFoxAUAdab2jAbGLAgxHcI)" vector-effect="non-scaling-stroke" stroke-width="8" stroke="rgb(0,0,0)" stroke-linejoin="miter" stroke-linecap="square" stroke-miterlimit="3"/><mask id="_mask_GXvmJgUl2KstCKurVN7PlWxIBgk9Sg23"><path d=" M -1637.1 3988.762 C -1655.732 3815.992 -1649.735 3811.582 -1996.796 3829.357 C -2212.141 3840.386 -2328.409 3806.574 -2330.822 3890.546 C -2334.011 4001.485 -2246.375 4015.913 -2029.944 4063.492 C -1708.756 4134.101 -1620.154 4145.887 -1637.1 3988.762 Z " fill="white" stroke="none"/></mask><path d=" M -1637.1 3988.762 C -1655.732 3815.992 -1649.735 3811.582 -1996.796 3829.357 C -2212.141 3840.386 -2328.409 3806.574 -2330.822 3890.546 C -2334.011 4001.485 -2246.375 4015.913 -2029.944 4063.492 C -1708.756 4134.101 -1620.154 4145.887 -1637.1 3988.762 Z " fill="rgb(210,173,135)"/><path d=" M -1637.1 3988.762 C -1655.732 3815.992 -1649.735 3811.582 -1996.796 3829.357 C -2212.141 3840.386 -2328.409 3806.574 -2330.822 3890.546 C -2334.011 4001.485 -2246.375 4015.913 -2029.944 4063.492 C -1708.756 4134.101 -1620.154 4145.887 -1637.1 3988.762 Z " fill="rgb(210,173,135)" mask="url(#_mask_GXvmJgUl2KstCKurVN7PlWxIBgk9Sg23)" vector-effect="non-scaling-stroke" stroke-width="8" stroke="rgb(0,0,0)" stroke-linejoin="miter" stroke-linecap="square" stroke-miterlimit="3"/></g><g><defs><filter id="8fzYz3CVoL07NXjYBqK91yOolhCO5E1B" x="-200%" y="-200%" width="400%" height="400%" filterUnits="objectBoundingBox" color-interpolation-filters="sRGB"><feGaussianBlur xmlns="http://www.w3.org/2000/svg" in="SourceGraphic" stdDeviation="85.87218125678056"/><feOffset xmlns="http://www.w3.org/2000/svg" dx="-220" dy="80" result="pf_100_offsetBlur"/><feFlood xmlns="http://www.w3.org/2000/svg" flood-color="#000000" flood-opacity="0.65"/><feComposite xmlns="http://www.w3.org/2000/svg" in2="pf_100_offsetBlur" operator="in" result="pf_100_dropShadow"/><feBlend xmlns="http://www.w3.org/2000/svg" in="SourceGraphic" in2="pf_100_dropShadow" mode="normal"/></filter></defs><g filter="url(#8fzYz3CVoL07NXjYBqK91yOolhCO5E1B)"><path d=" M -7146.791 8234.494 C -7227.616 8148.179 -7101.73 7837.231 -6966.858 7605.118 C -6892.05 7321.349 -6527.666 6934.542 -6316.299 6918.109 C -6228.726 6911.301 -6428.898 7175.69 -6404.571 7271.468 C -6148.015 7310.72 -6045.649 7788.985 -6043.074 7713.45 C -5636.506 7962.08 -5778.941 8271.048 -5918.821 8352.21 C -6121.306 8469.698 -6172.541 8515.106 -6507.921 8516.589 C -6929.293 8518.454 -6984.327 8407.994 -7146.791 8234.494 Z " fill="rgb(77,182,172)" vector-effect="non-scaling-stroke" stroke-width="5.235" stroke="rgb(0,0,0)" stroke-linejoin="round" stroke-linecap="butt" stroke-miterlimit="1.414"/></g>
<defs><filter id="3CRYCHqZnnNaMwTHQO79ivIkbD1LkBVy" x="-200%" y="-200%" width="400%" height="400%" filterUnits="objectBoundingBox" color-interpolation-filters="sRGB"><feOffset xmlns="http://www.w3.org/2000/svg" in="SourceGraphic" dx="-169" dy="-134"/><feGaussianBlur xmlns="http://www.w3.org/2000/svg" stdDeviation="68.26838409914055" result="pf_100_offsetBlur"/><feComposite xmlns="http://www.w3.org/2000/svg" in="SourceGraphic" in2="pf_100_offsetBlur" result="pf_100_inverse" operator="out"/><feFlood xmlns="http://www.w3.org/2000/svg" flood-color="#000000" flood-opacity="0.5" result="pf_100_color"/><feComposite xmlns="http://www.w3.org/2000/svg" in="pf_100_color" in2="pf_100_inverse" operator="in" result="pf_100_shadow"/><feComposite xmlns="http://www.w3.org/2000/svg" in="pf_100_shadow" in2="SourceGraphic" operator="over"/></filter></defs><g filter="url(#3CRYCHqZnnNaMwTHQO79ivIkbD1LkBVy)"><path d=" M -7297.241 8187.083 C -7370.626 8094.361 -7219.378 7794.929 -7065.714 7574.805 C -6967.622 7298.22 -6572.403 6942.977 -6360.401 6944.137 C -6272.566 6944.617 -6493.982 7191.488 -6477.685 7288.954 C -6460.576 7467.387 -6382.858 7596.958 -6244.839 7690.635 C -6147.72 7745.805 -5994.93 7902.746 -5994.649 7926.313 C -5610.109 8207.817 -5937.139 8336.992 -6083.27 8406.27 C -6294.804 8506.554 -6349.63 8547.554 -6683.977 8521.209 C -7104.051 8488.109 -7149.731 8373.464 -7297.241 8187.083 Z " fill="rgb(68,161,152)" vector-effect="non-scaling-stroke" stroke-width="5.235" stroke="rgb(0,0,0)" stroke-linejoin="round" stroke-linecap="butt" stroke-miterlimit="1.414"/></g></g><g><defs><filter id="w7Ql6M3ngGL8K3ZhYr35mqj7IUl7lrFB" x="-200%" y="-200%" width="400%" height="400%" filterUnits="objectBoundingBox" color-interpolation-filters="sRGB"><feGaussianBlur xmlns="http://www.w3.org/2000/svg" in="SourceGraphic" stdDeviation="85.87218125678056"/><feOffset xmlns="http://www.w3.org/2000/svg" dx="-120" dy="31" result="pf_100_offsetBlur"/><feFlood xmlns="http://www.w3.org/2000/svg" flood-color="#000000" flood-opacity="0.65"/><feComposite xmlns="http://www.w3.org/2000/svg" in2="pf_100_offsetBlur" operator="in" result="pf_100_dropShadow"/><feBlend xmlns="http://www.w3.org/2000/svg" in="SourceGraphic" in2="pf_100_dropShadow" mode="normal"/></filter></defs><g filter="url(#w7Ql6M3ngGL8K3ZhYr35mqj7IUl7lrFB)"><path d=" M -3472.423 8317.885 C -3388.22 8234.821 -3501.711 7919.05 -3627.308 7681.715 C -3690.825 7395.132 -4039.678 6994.087 -4250.28 6969.283 C -4337.536 6959.007 -4147.953 7231.189 -4176.064 7325.952 C -4434.039 7355.011 -4555.311 7828.96 -4554.89 7753.364 C -4971.096 7985.742 -4840.987 8300.191 -4704.4 8386.855 C -4506.682 8512.307 -4457.275 8559.721 -4122.134 8574.501 C -3701.062 8593.069 -3641.679 8484.851 -3472.423 8317.885 Z " fill="rgb(77,182,172)" vector-effect="non-scaling-stroke" stroke-width="5.235" stroke="rgb(0,0,0)" stroke-linejoin="round" stroke-linecap="butt" stroke-miterlimit="1.414"/></g><defs><filter id="qygfufWRErZsq0Vjct4h1b4HS6I1OJ02" x="-200%" y="-200%" width="400%" height="400%" filterUnits="objectBoundingBox" color-interpolation-filters="sRGB"><feOffset xmlns="http://www.w3.org/2000/svg" in="SourceGraphic" dx="170" dy="-134"/><feGaussianBlur xmlns="http://www.w3.org/2000/svg" stdDeviation="68.26838409914055" result="pf_100_offsetBlur"/><feComposite xmlns="http://www.w3.org/2000/svg" in="SourceGraphic" in2="pf_100_offsetBlur" result="pf_100_inverse" operator="out"/><feFlood xmlns="http://www.w3.org/2000/svg" flood-color="#000000" flood-opacity="0.5" result="pf_100_color"/><feComposite xmlns="http://www.w3.org/2000/svg" in="pf_100_color" in2="pf_100_inverse" operator="in" result="pf_100_shadow"/><feComposite xmlns="http://www.w3.org/2000/svg" in="pf_100_shadow" in2="SourceGraphic" operator="over"/></filter></defs><g filter="url(#qygfufWRErZsq0Vjct4h1b4HS6I1OJ02)"><path d=" M -3295.784 8238.019 C -3222.381 8145.273 -3373.667 7845.767 -3527.369 7625.589 C -3625.485 7348.935 -4020.801 6993.603 -4232.856 6994.763 C -4320.714 6995.244 -4099.242 7242.176 -4115.544 7339.667 C -4132.657 7518.144 -4210.394 7647.746 -4348.447 7741.447 C -4445.591 7796.63 -4598.418 7953.61 -4598.7 7977.184 C -4983.335 8258.757 -4656.223 8387.965 -4510.056 8457.259 C -4298.47 8557.568 -4243.63 8598.579 -3909.201 8572.227 C -3489.022 8539.119 -3443.331 8424.446 -3295.784 8238.019 Z " fill="rgb(77,182,172)" vector-effect="non-scaling-stroke" stroke-width="5.235" stroke="rgb(0,0,0)" stroke-linejoin="round" stroke-linecap="butt" stroke-miterlimit="1.414"/></g></g><path d=" M -5484.125 1922.989 L -5315.973 2066.956 Q -5373.107 2022.946 -5485.437 1974.11 C -5583.543 1994.317 -5595.654 2056.89 -5673.329 2093.528 L -5484.125 1922.989 Z " fill="rgb(170,140,110)"/><defs><filter id="gzT1BuriuhnuN0nD8GyDNAepaCt8dUYD" x="-200%" y="-200%" width="400%" height="400%" filterUnits="objectBoundingBox" color-interpolation-filters="sRGB"><feGaussianBlur xmlns="http://www.w3.org/2000/svg" in="SourceGraphic" stdDeviation="82.00793310022544"/><feOffset xmlns="http://www.w3.org/2000/svg" dx="94" dy="0" result="pf_100_offsetBlur"/><feFlood xmlns="http://www.w3.org/2000/svg" flood-color="#000000" flood-opacity="0.65"/><feComposite xmlns="http://www.w3.org/2000/svg" in2="pf_100_offsetBlur" operator="in" result="pf_100_dropShadow"/><feBlend xmlns="http://www.w3.org/2000/svg" in="SourceGraphic" in2="pf_100_dropShadow" mode="normal"/></filter></defs>
<g filter="url(#gzT1BuriuhnuN0nD8GyDNAepaCt8dUYD)"><path d=" M -6807.752 488.247 C -6910.116 165.808 -6502.612 -5.527 -6119.234 -123.589 C -6157.932 -126.054 -6350.303 -135.72 -6478.607 -83.477 C -6998.344 142.603 -7200.643 409.557 -6799.673 700.392 C -6673.263 735.385 -6583.737 761.573 -6381.304 677.575 C -6025.047 519.4 -5937.696 256.621 -6066.627 70.755 C -6125.224 40.132 -6245.2 -20.302 -6448.627 113.942 C -6687.841 272.891 -6721.456 391.504 -6610.706 491.834 C -6540.03 530.963 -6417.688 537.623 -6333.635 440.381 C -6076.839 159.151 -6248.933 170.434 -6430.888 310.55 C -6319.675 269.376 -6213.261 259.147 -6423.31 400.679 C -6540.915 413.966 -6612.04 392.576 -6432.47 215.229 C -6330.43 132.843 -6184.547 113.737 -6123.579 168.787 C -6088.277 344.277 -6222.161 506.047 -6424.02 569.41 C -6633.395 653.085 -6722.678 562.308 -6807.752 488.247 Z " fill="rgb(68,18,102)"/></g><path d=" M -5496.878 2622.403 L -5448.148 2572.89 Q -5464.836 2588.179 -5498.655 2606.453 C -5529.872 2602.757 -5535.332 2583.515 -5560.6 2574.135 L -5496.878 2622.403 Z " fill="rgb(0,135,123)"/><path d=" M -4446.897 701.511 C -4672.291 529.761 -4852.645 730.774 -4990.375 934.195 C -4987.125 908.89 -4969.053 783.957 -4913.528 720.102 C -4677.906 466.234 -4453.646 426.793 -4290.827 777.007 C -4281.49 868.605 -4273.836 933.943 -4362.603 1034.168 C -4526.487 1207.119 -4732.578 1175.21 -4853.331 1031.961 C -4868.327 984.722 -4897.351 888.755 -4771.239 804.57 C -4622.133 705.938 -4529.871 724.02 -4470.086 827.386 C -4450.375 885.089 -4461.489 964.713 -4544.538 985.638 C -4786.52 1054.827 -4755.59 949.674 -4627.943 881.024 C -4673.028 937.737 -4694.561 1001.679 -4562.182 915.722 C -4536.915 845.713 -4543.429 793.611 -4698.337 848.399 C -4772.742 885.633 -4806.028 971.605 -4773.252 1028.448 C -4647.902 1109.009 -4510.523 1077.961 -4437.115 971.253 C -4347.676 866.527 -4403.201 779.914 -4446.897 701.511 Z " fill="rgb(47,12,70)"/><defs><filter id="RVTWy3WWkKATLwiU1Nhi45gZzbf4MmxZ" x="-200%" y="-200%" width="400%" height="400%" filterUnits="objectBoundingBox" color-interpolation-filters="sRGB"><feGaussianBlur xmlns="http://www.w3.org/2000/svg" in="SourceGraphic" stdDeviation="82.00793310022544"/><feOffset xmlns="http://www.w3.org/2000/svg" dx="94" dy="0" result="pf_100_offsetBlur"/><feFlood xmlns="http://www.w3.org/2000/svg" flood-color="#000000" flood-opacity="0.65"/><feComposite xmlns="http://www.w3.org/2000/svg" in2="pf_100_offsetBlur" operator="in" result="pf_100_dropShadow"/><feBlend xmlns="http://www.w3.org/2000/svg" in="SourceGraphic" in2="pf_100_dropShadow" mode="normal"/></filter></defs><g filter="url(#RVTWy3WWkKATLwiU1Nhi45gZzbf4MmxZ)"><path d=" M -3892.272 712.877 C -3793.527 893.71 -4049.526 1068.058 -4294.432 1205.577 C -4268.356 1200.535 -4138.974 1173.883 -4058.212 1120.035 C -3732.42 893.024 -3622.473 694.674 -3917.658 583.858 C -4005.375 583.768 -4067.631 582.841 -4194.907 668.766 C -4417.921 826.344 -4451.495 1002.652 -4347.878 1095.043 C -4305.859 1103.937 -4220.041 1120.752 -4096.836 1003.778 C -3952.06 865.555 -3940.787 786.958 -4024.204 744.058 C -4075.09 731.983 -4157.421 748.619 -4204.391 822.626 C -4349.387 1038.983 -4235.521 1002.891 -4127.209 885.944 C -4197.6 930.094 -4267.703 954.41 -4140.762 831.834 C -4063.474 803.742 -4013.96 804.838 -4117.17 944.262 C -4177.552 1012.187 -4273.177 1048.646 -4319.08 1025.142 C -4359.193 923.264 -4285.024 801.154 -4156.188 728.009 C -4024.246 641.106 -3956.066 681.772 -3892.272 712.877 Z " fill="rgb(82,22,123)"/></g><path d=" M -4147.418 -344.178 C -4348.171 -238.729 -4463.661 -421.393 -4545.199 -600.271 C -4546.01 -579.871 -4548.416 -478.884 -4513.123 -421.094 C -4361.076 -189.354 -4189.39 -128.318 -4014.203 -382.927 C -3994.617 -453.955 -3979.862 -504.488 -4036.532 -595.41 C -4142.771 -753.735 -4309.638 -756.05 -4424.026 -659.13 C -4442.159 -623.858 -4477.862 -552.009 -4389.585 -468.761 C -4285.094 -371.047 -4209.884 -373.007 -4148.923 -446.591 C -4125.673 -489.491 -4123.821 -553.799 -4186.558 -581.388 C -4368.259 -668.259 -4357.881 -581.165 -4266.322 -509.971 C -4294.33 -560.732 -4302.791 -614.057 -4209.806 -528.575 C -4199.208 -469.966 -4211.298 -429.725 -4326.217 -493.618 C -4379.958 -532.923 -4394.754 -605.197 -4361.309 -645.676 C -4251.658 -692.519 -4147.404 -649.696 -4103.717 -555.708 C -4047.117 -461.145 -4102.482 -400.212 -4147.418 -344.178 Z " fill="rgb(43,11,64)"/><defs><filter id="QurkqocIVDdYmG7wieTWpn4YR5ghm3Rw" x="-200%" y="-200%" width="400%" height="400%" filterUnits="objectBoundingBox" color-interpolation-filters="sRGB"><feGaussianBlur xmlns="http://www.w3.org/2000/svg" in="SourceGraphic" stdDeviation="82.00793310022544"/><feOffset xmlns="http://www.w3.org/2000/svg" dx="94" dy="0" result="pf_100_offsetBlur"/><feFlood xmlns="http://www.w3.org/2000/svg" flood-color="#000000" flood-opacity="0.65"/><feComposite xmlns="http://www.w3.org/2000/svg" in2="pf_100_offsetBlur" operator="in" result="pf_100_dropShadow"/><feBlend xmlns="http://www.w3.org/2000/svg" in="SourceGraphic" in2="pf_100_dropShadow" mode="normal"/></filter></defs>
<g filter="url(#QurkqocIVDdYmG7wieTWpn4YR5ghm3Rw)"><path d=" M -4836.619 716.903 C -5293.576 886.637 -5468.545 509.187 -5574.043 145.244 C -5583.106 184.928 -5624.611 381.673 -5571.854 500.863 C -5338.34 980.719 -5002.178 1130.81 -4544.675 665.236 C -4478.148 530.082 -4429.106 434.074 -4514.496 246.343 C -4678.956 -81.92 -5026.28 -116.49 -5299.957 52.144 C -5350.535 117.748 -5450.985 251.603 -5296.877 430.042 C -5114.164 639.646 -4956.535 649.365 -4802.76 516.671 C -4738.75 437.096 -4711.653 311.868 -4832.582 246.703 C -5180.305 44.363 -5190.119 216.284 -5024.808 371.779 C -5064.904 267.623 -5063.293 161.983 -4900.168 345.632 C -4899.232 461.976 -4938.995 538.369 -5155.683 392.921 C -5253.61 306.5 -5258.368 162.72 -5173.964 89.709 C -4928.259 17.994 -4726.21 120.382 -4669.017 311.762 C -4585.089 506.588 -4722.619 615.59 -4836.619 716.903 Z " fill="rgb(68,18,102)"/></g><defs><filter id="nNvy225LxZq7EWs9lJpty5qz47T0VHB6" x="-200%" y="-200%" width="400%" height="400%" filterUnits="objectBoundingBox" color-interpolation-filters="sRGB"><feGaussianBlur xmlns="http://www.w3.org/2000/svg" in="SourceGraphic" stdDeviation="82.00793310022544"/><feOffset xmlns="http://www.w3.org/2000/svg" dx="94" dy="0" result="pf_100_offsetBlur"/><feFlood xmlns="http://www.w3.org/2000/svg" flood-color="#000000" flood-opacity="0.65"/><feComposite xmlns="http://www.w3.org/2000/svg" in2="pf_100_offsetBlur" operator="in" result="pf_100_dropShadow"/><feBlend xmlns="http://www.w3.org/2000/svg" in="SourceGraphic" in2="pf_100_dropShadow" mode="normal"/></filter></defs>
<g filter="url(#nNvy225LxZq7EWs9lJpty5qz47T0VHB6)"><path d=" M -3458.355 -5.786 C -3432.814 -346.353 -3754.393 -396.6 -4050.414 -402.193 C -4022.707 -415.527 -3884.585 -479.311 -3783.592 -465.135 C -3372.304 -393.747 -3185.169 -193.021 -3432.153 201.512 C -3518.586 271.103 -3579.587 321.747 -3739.167 297.863 C -4021.572 245.83 -4124.671 16.608 -4059.212 -199.496 C -4021.322 -245.673 -3943.403 -338.028 -3775.507 -265.871 C -3577.911 -179.965 -3535.593 -74.854 -3600.789 53.446 C -3646.156 111.261 -3733.92 152.32 -3809.606 82.136 C -4038.441 -116.963 -3911.866 -154.763 -3758.663 -70.853 C -3845.582 -79.169 -3924.341 -58.937 -3750.539 18.39 C -3663.197 -2.053 -3614.823 -42.852 -3771.922 -163.416 C -3858.413 -214.154 -3967.153 -191.332 -4003.071 -120.879 C -4002.162 58.702 -3880.566 177.141 -3724.522 181.247 C -3559.953 202.853 -3508.89 89.861 -3458.355 -5.786 Z " fill="rgb(68,18,102)"/></g><defs><filter id="M1qCuhhDEUbKWbN5OrcfK8Hfxj6AAv3C" x="-200%" y="-200%" width="400%" height="400%" filterUnits="objectBoundingBox" color-interpolation-filters="sRGB"><feGaussianBlur xmlns="http://www.w3.org/2000/svg" in="SourceGraphic" stdDeviation="82.00793310022544"/><feOffset xmlns="http://www.w3.org/2000/svg" dx="94" dy="0" result="pf_100_offsetBlur"/><feFlood xmlns="http://www.w3.org/2000/svg" flood-color="#000000" flood-opacity="0.65"/><feComposite xmlns="http://www.w3.org/2000/svg" in2="pf_100_offsetBlur" operator="in" result="pf_100_dropShadow"/><feBlend xmlns="http://www.w3.org/2000/svg" in="SourceGraphic" in2="pf_100_dropShadow" mode="normal"/></filter></defs>
<g filter="url(#M1qCuhhDEUbKWbN5OrcfK8Hfxj6AAv3C)"><path d=" M -4155.392 528.547 C -4580.589 623.07 -4702.824 226.358 -4764.022 -146.26 C -4775.786 -108.851 -4831.034 77.154 -4794.67 202.037 C -4629.344 708.115 -4341.761 907.609 -3888.945 523.707 C -3816.914 401.883 -3764.147 315.624 -3823.478 118.568 C -3940.803 -228.371 -4248.986 -316.582 -4509.784 -194.436 C -4561.14 -138.166 -4663.462 -22.925 -4541.677 175.799 C -4397.108 409.496 -4256.695 443.688 -4106.678 337.932 C -4042 270.095 -4006.226 151.809 -4108.655 69.113 C -4401.811 -183.314 -4426.373 -16.635 -4292.442 161.394 C -4318.835 53.205 -4307.703 -49.907 -4178.313 155.327 C -4188.143 269.31 -4230.793 337.83 -4411.702 161.587 C -4491.562 61.695 -4482.642 -79.731 -4400.284 -137.952 C -4173.45 -169.648 -4001.715 -37.829 -3967.995 158.381 C -3910.625 362.15 -4043.907 447.268 -4155.392 528.547 Z " fill="rgb(82,22,123)"/></g><defs><filter id="wvIwhwvWotBbXLgPNpMG0nFmQQEl0LpZ" x="-200%" y="-200%" width="400%" height="400%" filterUnits="objectBoundingBox" color-interpolation-filters="sRGB"><feOffset xmlns="http://www.w3.org/2000/svg" in="SourceGraphic" dx="126" dy="-135"/><feGaussianBlur xmlns="http://www.w3.org/2000/svg" stdDeviation="85.87218125678056" result="pf_100_offsetBlur"/><feComposite xmlns="http://www.w3.org/2000/svg" in="SourceGraphic" in2="pf_100_offsetBlur" result="pf_100_inverse" operator="out"/><feFlood xmlns="http://www.w3.org/2000/svg" flood-color="#000000" flood-opacity="0.5" result="pf_100_color"/><feComposite xmlns="http://www.w3.org/2000/svg" in="pf_100_color" in2="pf_100_inverse" operator="in" result="pf_100_shadow"/><feComposite xmlns="http://www.w3.org/2000/svg" in="pf_100_shadow" in2="SourceGraphic" operator="over" result="_out_OFCZcUUOeGhDWrz96hMNcLRkxG3HGxeU"/><feOffset xmlns="http://www.w3.org/2000/svg" in="_out_OFCZcUUOeGhDWrz96hMNcLRkxG3HGxeU" dx="-52" dy="-39"/><feGaussianBlur xmlns="http://www.w3.org/2000/svg" stdDeviation="40.78928609697077" result="pf_101_offsetBlur"/><feComposite xmlns="http://www.w3.org/2000/svg" in="_out_OFCZcUUOeGhDWrz96hMNcLRkxG3HGxeU" in2="pf_101_offsetBlur" result="pf_101_inverse" operator="out"/><feFlood xmlns="http://www.w3.org/2000/svg" flood-color="#000000" flood-opacity="0.5" result="pf_101_color"/><feComposite xmlns="http://www.w3.org/2000/svg" in="pf_101_color" in2="pf_101_inverse" operator="in" result="pf_101_shadow"/><feComposite xmlns="http://www.w3.org/2000/svg" in="pf_101_shadow" in2="_out_OFCZcUUOeGhDWrz96hMNcLRkxG3HGxeU" operator="over" result="_out_CbMagdzB20RFPH8Qr1rXsdEpyYMptkDR"/><feMerge><feMergeNode in="_out_CbMagdzB20RFPH8Qr1rXsdEpyYMptkDR"/></feMerge></filter></defs><g filter="url(#wvIwhwvWotBbXLgPNpMG0nFmQQEl0LpZ)">
<mask id="_mask_w19A6bC62bbLkcW3nN3Fc1rsNf2eAdqF" x="-200%" y="-200%" width="400%" height="400%"><rect x="-200%" y="-200%" width="400%" height="400%" style="fill:white;"/><path d=" M -6765.195 -215.115 C -6727.783 -387.261 -6735.724 -579.568 -6710.246 -765.664 C -6676.371 -1013.087 -6618.066 -1249.528 -6652.571 -1413 C -6732.474 -1791.558 -7215.387 -1597.333 -7229.744 -1846 C -7181.81 -1885.832 -6837.12 -2112.602 -6446.77 -1996 C -6323.892 -1970.851 -5999.476 -1916.047 -5814.412 -1846 C -5629.348 -1775.953 -5583.635 -1690.664 -5483.05 -1613 C -5186.937 -1344.552 -4901.134 -1096.333 -4896.264 -906.336 C -4419.055 -782.536 -4270.628 -661.207 -4564.26 -396.021 C -4788.259 421.836 -6019.525 679.396 -6872.505 192.922 C -7116.667 -13 -6793.229 -86.12 -6765.195 -215.115 Z " fill-rule="evenodd" fill="black" stroke="none"/></mask><path d=" M -6765.195 -215.115 C -6727.783 -387.261 -6735.724 -579.568 -6710.246 -765.664 C -6676.371 -1013.087 -6618.066 -1249.528 -6652.571 -1413 C -6732.474 -1791.558 -7215.387 -1597.333 -7229.744 -1846 C -7181.81 -1885.832 -6837.12 -2112.602 -6446.77 -1996 C -6323.892 -1970.851 -5999.476 -1916.047 -5814.412 -1846 C -5629.348 -1775.953 -5583.635 -1690.664 -5483.05 -1613 C -5186.937 -1344.552 -4901.134 -1096.333 -4896.264 -906.336 C -4419.055 -782.536 -4270.628 -661.207 -4564.26 -396.021 C -4788.259 421.836 -6019.525 679.396 -6872.505 192.922 C -7116.667 -13 -6793.229 -86.12 -6765.195 -215.115 Z " fill-rule="evenodd" fill="rgb(0,150,136)"/><path d=" M -6765.195 -215.115 C -6727.783 -387.261 -6735.724 -579.568 -6710.246 -765.664 C -6676.371 -1013.087 -6618.066 -1249.528 -6652.571 -1413 C -6732.474 -1791.558 -7215.387 -1597.333 -7229.744 -1846 C -7181.81 -1885.832 -6837.12 -2112.602 -6446.77 -1996 C -6323.892 -1970.851 -5999.476 -1916.047 -5814.412 -1846 C -5629.348 -1775.953 -5583.635 -1690.664 -5483.05 -1613 C -5186.937 -1344.552 -4901.134 -1096.333 -4896.264 -906.336 C -4419.055 -782.536 -4270.628 -661.207 -4564.26 -396.021 C -4788.259 421.836 -6019.525 679.396 -6872.505 192.922 C -7116.667 -13 -6793.229 -86.12 -6765.195 -215.115 Z " fill-rule="evenodd" fill="rgb(0,150,136)" mask="url(#_mask_w19A6bC62bbLkcW3nN3Fc1rsNf2eAdqF)" vector-effect="non-scaling-stroke" stroke-width="10.68" stroke="rgb(0,0,0)" stroke-linejoin="round" stroke-linecap="butt" stroke-miterlimit="1.414"/></g><defs><filter id="kcFi4H8AgYFw7JguLXMrhG2cWv2UIil9" x="-200%" y="-200%" width="400%" height="400%" filterUnits="objectBoundingBox" color-interpolation-filters="sRGB"><feOffset xmlns="http://www.w3.org/2000/svg" in="SourceGraphic" dx="126" dy="-135"/>
<feGaussianBlur xmlns="http://www.w3.org/2000/svg" stdDeviation="85.87218125678056" result="pf_100_offsetBlur"/><feComposite xmlns="http://www.w3.org/2000/svg" in="SourceGraphic" in2="pf_100_offsetBlur" result="pf_100_inverse" operator="out"/><feFlood xmlns="http://www.w3.org/2000/svg" flood-color="#000000" flood-opacity="0.5" result="pf_100_color"/><feComposite xmlns="http://www.w3.org/2000/svg" in="pf_100_color" in2="pf_100_inverse" operator="in" result="pf_100_shadow"/><feComposite xmlns="http://www.w3.org/2000/svg" in="pf_100_shadow" in2="SourceGraphic" operator="over" result="_out_5VvWYp7QRP0jxm4aP1LO7jIdN97FX2rR"/><feOffset xmlns="http://www.w3.org/2000/svg" in="_out_5VvWYp7QRP0jxm4aP1LO7jIdN97FX2rR" dx="-52" dy="-39"/><feGaussianBlur xmlns="http://www.w3.org/2000/svg" stdDeviation="40.78928609697077" result="pf_101_offsetBlur"/><feComposite xmlns="http://www.w3.org/2000/svg" in="_out_5VvWYp7QRP0jxm4aP1LO7jIdN97FX2rR" in2="pf_101_offsetBlur" result="pf_101_inverse" operator="out"/><feFlood xmlns="http://www.w3.org/2000/svg" flood-color="#000000" flood-opacity="0.5" result="pf_101_color"/><feComposite xmlns="http://www.w3.org/2000/svg" in="pf_101_color" in2="pf_101_inverse" operator="in" result="pf_101_shadow"/><feComposite xmlns="http://www.w3.org/2000/svg" in="pf_101_shadow" in2="_out_5VvWYp7QRP0jxm4aP1LO7jIdN97FX2rR" operator="over" result="_out_1IBK1N9jIrFbvBamuYWvC2vndxCPvvva"/><feMerge><feMergeNode in="_out_1IBK1N9jIrFbvBamuYWvC2vndxCPvvva"/></feMerge></filter></defs><g opacity="0.4" filter="url(#kcFi4H8AgYFw7JguLXMrhG2cWv2UIil9)"><path d=" M -6778.895 -163.416 L -6712.419 -661.469 C -6728.29 -757.673 -6025 -308.333 -5448.148 -581.388 L -4895 -885.333 Q -4591.667 -741.667 -4995.129 -265.871 C -5758.333 191.667 -6208.333 141.667 -6778.895 -163.416 Z " fill="rgb(0,150,136)"/></g>
<path d=" M -3318.387 29.325 C -3173.516 -46.771 -3090.174 85.047 -3031.333 214.132 C -3030.747 199.411 -3029.011 126.534 -3054.48 84.831 C -3164.203 -82.402 -3288.099 -126.448 -3414.52 57.288 C -3428.655 108.545 -3439.302 145.011 -3398.407 210.624 C -3321.741 324.878 -3201.322 326.548 -3118.776 256.607 C -3105.69 231.153 -3079.926 179.304 -3143.63 119.229 C -3219.035 48.715 -3273.309 50.129 -3317.301 103.23 C -3334.079 134.189 -3335.415 180.596 -3290.142 200.505 C -3159.02 263.195 -3166.508 200.344 -3232.581 148.968 C -3212.37 185.599 -3206.264 224.081 -3273.365 162.394 C -3281.013 120.099 -3272.289 91.059 -3189.358 137.167 C -3150.577 165.531 -3139.9 217.687 -3164.035 246.898 C -3243.164 280.702 -3318.398 249.799 -3349.924 181.973 C -3390.768 113.733 -3350.815 69.761 -3318.387 29.325 Z " fill="rgb(82,22,123)"/><path d=" M -6376.259 752.793 C -6314.494 833.854 -6501.679 1026.967 -6679.521 1193.356 C -6660.99 1181.66 -6568.973 1122.599 -6509.968 1062.4 C -6271.534 813.422 -6185.948 653.067 -6388.666 680.206 C -6450.287 708.862 -6493.985 728.659 -6587.017 824.195 C -6750.323 995.996 -6781.328 1117.532 -6712.419 1141.545 C -6683.273 1133.368 -6623.69 1115.821 -6532.212 1002.148 C -6424.685 868.093 -6413.459 815.122 -6470.258 815.528 C -6505.5 824.613 -6564.041 861.993 -6600.153 923.771 C -6711.121 1106.889 -6629.607 1046.988 -6548.593 938.208 C -6599.903 988.931 -6650.176 1027.124 -6555.838 908.717 C -6500.358 865.804 -6465.618 850.284 -6543.994 971.488 C -6589.272 1033.842 -6657.987 1088.003 -6689.247 1088.29 C -6713.141 1037.542 -6655.898 936.701 -6562.307 848.667 C -6465.956 750.99 -6419.768 754.171 -6376.259 752.793 Z " fill="rgb(47,12,70)"/><linearGradient id="_lgradient_1" x1="0" y1="0.5" x2="1" y2="0.5"><stop offset="0%" stop-opacity="1" style="stop-color:rgb(0,0,0)"/>
<stop offset="100%" stop-opacity="1" style="stop-color:rgb(0,0,0)"/></linearGradient><path d=" M -5614.394 1211.14 C -5663.015 1138.531 -5733.089 1076.845 -5785.804 1063.856 L -5785.804 1063.856 C -5785.804 1063.856 -5882.209 1021.787 -5968.59 1007.171 L -5968.59 1007.171 L -5968.59 1007.171 C -6197.363 936.555 -6509.003 930.777 -6896.663 1004.765 C -6915.898 1115.167 -6915.934 1232.317 -6896.663 1356.045 C -6873.877 1374.089 -6848.428 1392.584 -6820.346 1411.054 C -6809.599 1528.435 -6783.094 1752.708 -6721.657 2021.89 C -6704.785 2095.815 -6631.719 2172.117 -6558.594 2192.174 C -6498.482 2208.661 -6153.975 2286.376 -5774.167 2162.174 C -5677.075 2130.423 -5589.532 2022.172 -5578.795 1920.586 C -5568.879 1826.771 -5546.91 1662.005 -5546.856 1512.639 C -5544.289 1489.562 -5543.892 1466.329 -5545.666 1442.939 C -5504.779 1405.594 -5464.145 1406.063 -5423.755 1444.294 C -5425.394 1467.226 -5424.964 1490.007 -5422.447 1512.639 C -5422.393 1662.005 -5400.423 1826.771 -5390.507 1920.586 C -5379.771 2022.172 -5292.228 2130.424 -5195.136 2162.174 C -4815.328 2286.376 -4470.82 2208.661 -4410.709 2192.174 C -4337.584 2172.117 -4264.517 2095.815 -4247.645 2021.89 C -4186.209 1752.708 -4159.704 1528.435 -4148.956 1411.054 C -4120.875 1392.584 -4095.426 1374.089 -4072.64 1356.045 C -4053.368 1232.317 -4053.404 1115.167 -4072.64 1004.765 C -4460.299 930.777 -4771.94 936.555 -5000.713 1007.171 L -5000.713 1007.171 L -5000.713 1007.171 L -5000.713 1007.171 L -5000.713 1007.171 C -5087.093 1021.787 -5183.498 1063.856 -5183.498 1063.856 C -5236.758 1076.979 -5307.737 1139.81 -5356.439 1213.375 C -5441.595 1096.646 -5527.59 1095.892 -5614.394 1211.14 Z  M -5195.247 1252.806 C -5021.15 1171.708 -4621.97 1072.846 -4414.358 1113.29 C -4334.164 1128.913 -4272.473 1207.839 -4276.68 1289.432 C -4288.143 1511.752 -4380.679 1849.598 -4403.826 1898.25 C -4438.928 1972.027 -4531.002 2050.842 -4609.31 2074.144 C -4621.027 2077.63 -4881.876 2077.687 -5045.923 2053.509 C -5126.751 2041.596 -5223.079 1975.859 -5260.901 1906.802 C -5260.901 1906.802 -5316.566 1650.359 -5323.753 1463.238 C -5326.889 1381.597 -5269.307 1287.305 -5195.247 1252.806 L -5195.247 1252.806 L -5195.247 1252.806 L -5195.247 1252.806 L -5195.247 1252.806 Z  M -5774.056 1252.806 C -5948.152 1171.708 -6347.333 1072.846 -6554.944 1113.29 C -6635.138 1128.913 -6696.83 1207.839 -6692.623 1289.432 C -6681.16 1511.752 -6588.624 1849.598 -6565.476 1898.25 C -6530.375 1972.027 -6438.301 2050.842 -6359.993 2074.144 C -6348.276 2077.63 -6087.427 2077.687 -5923.38 2053.509 C -5842.552 2041.596 -5746.223 1975.859 -5708.402 1906.802 C -5708.402 1906.802 -5652.737 1650.359 -5645.55 1463.238 C -5642.414 1381.597 -5699.995 1287.305 -5774.056 1252.806 L -5774.056 1252.806 Z " fill-rule="evenodd" fill="rgb(198,39,39)" vector-effect="non-scaling-stroke" stroke-width="5.235" stroke="url(#_lgradient_1)" stroke-linejoin="round" stroke-linecap="butt" stroke-miterlimit="1.414"/><defs>
<filter id="y7VOwVYBycASJ3xgfmSm9pOjtYP9aO9X" x="-200%" y="-200%" width="400%" height="400%" filterUnits="objectBoundingBox" color-interpolation-filters="sRGB"><feGaussianBlur xmlns="http://www.w3.org/2000/svg" in="SourceGraphic" stdDeviation="82.00793310022544"/><feOffset xmlns="http://www.w3.org/2000/svg" dx="94" dy="0" result="pf_100_offsetBlur"/><feFlood xmlns="http://www.w3.org/2000/svg" flood-color="#000000" flood-opacity="0.65"/><feComposite xmlns="http://www.w3.org/2000/svg" in2="pf_100_offsetBlur" operator="in" result="pf_100_dropShadow"/><feBlend xmlns="http://www.w3.org/2000/svg" in="SourceGraphic" in2="pf_100_dropShadow" mode="normal"/>
</filter>
</defs>
<g filter="url(#y7VOwVYBycASJ3xgfmSm9pOjtYP9aO9X)"><path d=" M -7108.375 559.737 C -6942.074 486.967 -6827.711 694.779 -6743.135 892.715 C -6743.997 871.926 -6749.665 768.728 -6784.765 703.202 C -6934.656 438.58 -7088.495 345.652 -7221.126 575.988 C -7232.685 645.413 -7241.622 694.66 -7185.405 797.956 C -7080.95 979.162 -6935.808 1010.986 -6843.881 931.725 C -6830.837 898.732 -6805.341 831.309 -6888.425 730.31 C -6986.707 611.605 -7051.894 600.343 -7099.2 665.088 C -7116.102 705.005 -7112.771 770.664 -7056.15 810.045 C -6891.626 931.25 -6907.332 840.052 -6992.342 750.841 C -6964.111 807.87 -6952.664 864.08 -7040.01 759.957 C -7053.719 697.948 -7046.308 658.79 -6941.565 744.632 C -6891.859 794.447 -6873.454 871.219 -6899.399 906.851 C -6991.058 935.566 -7084.917 873.226 -7130.09 769.075 C -7186.524 662.056 -7143.108 609.303 -7108.375 559.737 Z " fill="rgb(68,18,102)"/>
</g>
<path d=" M -3359.837 1280.689 C -3396.526 1567.722 -3499.119 1564.889 -3588.267 1528.436 C -3581.727 1543.382 -3548.77 1615.657 -3516.759 1617.882 C -3384.619 1615.575 -3302.602 1474.48 -3325.035 1111.775 C -3341.796 1041.845 -3353.427 991.218 -3404.201 988.937 C -3495.325 993.031 -3555.949 1169.516 -3564.518 1358.49 C -3559.21 1402.19 -3547.954 1489.886 -3488.414 1453.138 C -3418.214 1409.072 -3391.895 1327.454 -3394.673 1211.605 C -3400.701 1157.18 -3421.573 1110.815 -3453.313 1158.725 C -3547.574 1292.675 -3514.685 1341.717 -3458.005 1293.146 C -3485.049 1287.998 -3505.942 1260.22 -3443.965 1219.99 C -3420.537 1249.135 -3411.397 1289.814 -3474.011 1368.354 C -3506.448 1398.577 -3535.958 1364.478 -3537.519 1300.846 C -3513.878 1151.491 -3462.146 1069.789 -3415.001 1088.042 C -3363.034 1092.91 -3362.485 1194.056 -3359.837 1280.689 Z " fill="rgb(47,12,70)"/>
<defs>
<filter id="XmaQE4UesTzZBSyQvXqkCSpl6t363VL6" x="-200%" y="-200%" width="400%" height="400%" filterUnits="objectBoundingBox" color-interpolation-filters="sRGB"><feGaussianBlur xmlns="http://www.w3.org/2000/svg" in="SourceGraphic" stdDeviation="82.00793310022544"/><feOffset xmlns="http://www.w3.org/2000/svg" dx="94" dy="0" result="pf_100_offsetBlur"/><feFlood xmlns="http://www.w3.org/2000/svg" flood-color="#000000" flood-opacity="0.65"/><feComposite xmlns="http://www.w3.org/2000/svg" in2="pf_100_offsetBlur" operator="in" result="pf_100_dropShadow"/><feBlend xmlns="http://www.w3.org/2000/svg" in="SourceGraphic" in2="pf_100_dropShadow" mode="normal"/></filter></defs><g filter="url(#XmaQE4UesTzZBSyQvXqkCSpl6t363VL6)"><path d=" M -6056.978 785.944 C -6200.068 719.062 -6147.449 578.029 -6082.62 457.419 C -6094.274 465.567 -6151.29 506.797 -6168.462 550.726 C -6232.888 732.717 -6194.373 853.65 -5979.343 843.486 C -5931.699 824.411 -5897.458 811.294 -5870.923 741.546 C -5827.901 615.902 -5896.949 522.39 -5998.907 499.807 C -6026.11 504.618 -6081.002 515.102 -6089.96 599.142 C -6100.106 698.272 -6067.319 739.154 -6000.82 741.945 C -5967.231 736.756 -5930.788 710.679 -5941.931 664.261 C -5970.34 526.885 -6014.264 569.348 -6015.154 650.128 C -5998.809 613.202 -5972.805 586.035 -5981.017 673.628 C -6009.052 704.207 -6036.463 714.464 -6049.467 623.806 C -6050.322 577.438 -6016.478 538.771 -5979.935 540.257 C -5907.742 581.32 -5887.549 657.183 -5921.256 721.023 C -5949.84 792.266 -6006.965 787.246 -6056.978 785.944 Z " fill="rgb(82,22,123)"/>
</g></g>
</svg>